<?xml version="1.0" encoding="utf-8"?>
<svg version="1.1" xmlns:xlink="http://www.w3.org/1999/xlink" width="130px" height="43px" xmlns="http://www.w3.org/2000/svg">
  <defs>
    <linearGradient gradientUnits="userSpaceOnUse" x1="64.5" y1="42" x2="64.5" y2="0" id="LinearGradient222">
      <stop id="Stop223" stop-color="#409eff" offset="0.03" />
      <stop id="Stop224" stop-color="#ffffff" offset="0.04" />
    </linearGradient>
  </defs>
  <g transform="matrix(1 0 0 1 0 -2 )">
    <path d="M 128.5 42  L 1.5 42  L 1.5 4  C 0.678947368421053 2.03999999999999  2.77010526315785 0.5  5.43157894736842 0.5  L 75.8331983805668 0.5  L 123.568421052632 0.5  C 126.229894736842 0.5  128.321052631579 2.03999999999999  128.5 4  L 128.5 42  Z " fill-rule="nonzero" fill="url(#LinearGradient222)" stroke="none" transform="matrix(1 0 0 1 0 2 )" />
    <path d="M 1.5 42  L 1.5 4  C 0.678947368421053 2.03999999999999  2.77010526315785 0.5  5.43157894736842 0.5  L 75.8331983805668 0.5  L 123.568421052632 0.5  C 126.229894736842 0.5  128.321052631579 2.03999999999999  128.5 4  L 128.5 42  " stroke-width="1" stroke="#cccccc" fill="none" transform="matrix(1 0 0 1 0 2 )" />
  </g>
</svg>