<?xml version="1.0" encoding="utf-8"?>
<svg version="1.1" xmlns:xlink="http://www.w3.org/1999/xlink" width="14px" height="14px" viewBox="184 502  14 14" xmlns="http://www.w3.org/2000/svg">
  <path d="M 184.5 504  A 1.5 1.5 0 0 1 186 502.5 L 196 502.5  A 1.5 1.5 0 0 1 197.5 504 L 197.5 514  A 1.5 1.5 0 0 1 196 515.5 L 186 515.5  A 1.5 1.5 0 0 1 184.5 514 L 184.5 504  Z " fill-rule="nonzero" fill="#1890ff" stroke="none" />
  <path d="M 184.5 504  A 1.5 1.5 0 0 1 186 502.5 L 196 502.5  A 1.5 1.5 0 0 1 197.5 504 L 197.5 514  A 1.5 1.5 0 0 1 196 515.5 L 186 515.5  A 1.5 1.5 0 0 1 184.5 514 L 184.5 504  Z " stroke-width="1" stroke="#d9d9d9" fill="none" />
  <path d="M 187.5 509.5  L 190.5 512.5  " stroke-width="3" stroke="#d9d9d9" fill="none" />
  <path d="M 190.5 512.5  L 195.5 505.5  " stroke-width="3" stroke="#d9d9d9" fill="none" />
</svg>