<?xml version="1.0" encoding="utf-8"?>
<svg version="1.1" xmlns:xlink="http://www.w3.org/1999/xlink" width="14px" height="14px" viewBox="184 541  14 14" xmlns="http://www.w3.org/2000/svg">
  <path d="M 184.5 543  A 1.5 1.5 0 0 1 186 541.5 L 196 541.5  A 1.5 1.5 0 0 1 197.5 543 L 197.5 553  A 1.5 1.5 0 0 1 196 554.5 L 186 554.5  A 1.5 1.5 0 0 1 184.5 553 L 184.5 543  Z " fill-rule="nonzero" fill="#1890ff" stroke="none" />
  <path d="M 184.5 543  A 1.5 1.5 0 0 1 186 541.5 L 196 541.5  A 1.5 1.5 0 0 1 197.5 543 L 197.5 553  A 1.5 1.5 0 0 1 196 554.5 L 186 554.5  A 1.5 1.5 0 0 1 184.5 553 L 184.5 543  Z " stroke-width="1" stroke="#d9d9d9" fill="none" />
  <path d="M 187.5 548.5  L 190.5 551.5  " stroke-width="3" stroke="#d9d9d9" fill="none" />
  <path d="M 190.5 551.5  L 195.5 544.5  " stroke-width="3" stroke="#d9d9d9" fill="none" />
</svg>