<?xml version="1.0" encoding="utf-8"?>
<svg version="1.1" xmlns:xlink="http://www.w3.org/1999/xlink" width="14px" height="14px" viewBox="184 424  14 14" xmlns="http://www.w3.org/2000/svg">
  <path d="M 184.5 426  A 1.5 1.5 0 0 1 186 424.5 L 196 424.5  A 1.5 1.5 0 0 1 197.5 426 L 197.5 436  A 1.5 1.5 0 0 1 196 437.5 L 186 437.5  A 1.5 1.5 0 0 1 184.5 436 L 184.5 426  Z " fill-rule="nonzero" fill="#f0f0f0" stroke="none" />
  <path d="M 184.5 426  A 1.5 1.5 0 0 1 186 424.5 L 196 424.5  A 1.5 1.5 0 0 1 197.5 426 L 197.5 436  A 1.5 1.5 0 0 1 196 437.5 L 186 437.5  A 1.5 1.5 0 0 1 184.5 436 L 184.5 426  Z " stroke-width="1" stroke="#d9d9d9" fill="none" />
</svg>