<?xml version="1.0" encoding="utf-8"?>
<svg version="1.1" xmlns:xlink="http://www.w3.org/1999/xlink" width="14px" height="14px" viewBox="184 307  14 14" xmlns="http://www.w3.org/2000/svg">
  <path d="M 184.5 309  A 1.5 1.5 0 0 1 186 307.5 L 196 307.5  A 1.5 1.5 0 0 1 197.5 309 L 197.5 319  A 1.5 1.5 0 0 1 196 320.5 L 186 320.5  A 1.5 1.5 0 0 1 184.5 319 L 184.5 309  Z " fill-rule="nonzero" fill="#ffffff" stroke="none" />
  <path d="M 184.5 309  A 1.5 1.5 0 0 1 186 307.5 L 196 307.5  A 1.5 1.5 0 0 1 197.5 309 L 197.5 319  A 1.5 1.5 0 0 1 196 320.5 L 186 320.5  A 1.5 1.5 0 0 1 184.5 319 L 184.5 309  Z " stroke-width="1" stroke="#d9d9d9" fill="none" />
</svg>