<?xml version="1.0" encoding="utf-8"?>
<svg version="1.1" xmlns:xlink="http://www.w3.org/1999/xlink" width="14px" height="14px" xmlns="http://www.w3.org/2000/svg">
  <g transform="matrix(1 0 0 1 -19 -13 )">
    <path d="M 2.54545454545455 10.1818181818182  L 3.81818181818182 10.1818181818182  L 3.81818181818182 11.4545454545455  L 2.54545454545455 11.4545454545455  L 2.54545454545455 10.1818181818182  Z M 2.54545454545455 2.54545454545455  L 3.81818181818182 2.54545454545455  L 3.81818181818182 3.81818181818182  L 2.54545454545455 3.81818181818182  L 2.54545454545455 2.54545454545455  Z M 10.1818181818182 2.54545454545455  L 11.4545454545455 2.54545454545455  L 11.4545454545455 3.81818181818182  L 10.1818181818182 3.81818181818182  L 10.1818181818182 2.54545454545455  Z M 1.27272727272727 8.90909090909091  L 1.27272727272727 12.7173295454545  L 5.09090909090909 12.7173295454545  L 5.09090909090909 8.90909090909091  L 1.27272727272727 8.90909090909091  Z M 1.27272727272727 1.27272727272727  L 1.27272727272727 5.09090909090909  L 5.09090909090909 5.09090909090909  L 5.09090909090909 1.27272727272727  L 1.27272727272727 1.27272727272727  Z M 8.90909090909091 1.27272727272727  L 8.90909090909091 5.09090909090909  L 12.7272727272727 5.09090909090909  L 12.7272727272727 1.27272727272727  L 8.90909090909091 1.27272727272727  Z M 0 7.63636363636364  L 6.36363636363636 7.63636363636364  L 6.36363636363636 14  L 0 14  L 0 7.63636363636364  Z M 10.1818181818182 12.7272727272727  L 11.4545454545455 12.7272727272727  L 11.4545454545455 14  L 10.1818181818182 14  L 10.1818181818182 12.7272727272727  Z M 12.7272727272727 12.7272727272727  L 14 12.7272727272727  L 14 14  L 12.7272727272727 14  L 12.7272727272727 12.7272727272727  Z M 12.7272727272727 7.63636363636364  L 14 7.63636363636364  L 14 11.4545454545455  L 10.1818181818182 11.4545454545455  L 10.1818181818182 10.1818181818182  L 8.90909090909091 10.1818181818182  L 8.90909090909091 14  L 7.63636363636364 14  L 7.63636363636364 7.63636363636364  L 11.4545454545455 7.63636363636364  L 11.4545454545455 8.90909090909091  L 12.7272727272727 8.90909090909091  L 12.7272727272727 7.63636363636364  Z M 0 0  L 6.36363636363636 0  L 6.36363636363636 6.36363636363636  L 0 6.36363636363636  L 0 0  Z M 7.63636363636364 0  L 14 0  L 14 6.36363636363636  L 7.63636363636364 6.36363636363636  L 7.63636363636364 0  Z " fill-rule="nonzero" fill="#000000" stroke="none" transform="matrix(1 0 0 1 19 13 )" />
  </g>
</svg>