<?xml version="1.0" encoding="utf-8"?>
<svg version="1.1" xmlns:xlink="http://www.w3.org/1999/xlink" width="14px" height="14px" xmlns="http://www.w3.org/2000/svg">
  <g transform="matrix(1 0 0 1 -172 -141 )">
    <path d="M 179 141  C 182.92 141  186 144.08  186 148  C 186 151.92  182.92 155  179 155  C 175.08 155  172 151.92  172 148  C 172 144.08  175.08 141  179 141  Z " fill-rule="nonzero" fill="#ffffff" stroke="none" fill-opacity="0" />
    <path d="M 179 141.5  C 182.64 141.5  185.5 144.36  185.5 148  C 185.5 151.64  182.64 154.5  179 154.5  C 175.36 154.5  172.5 151.64  172.5 148  C 172.5 144.36  175.36 141.5  179 141.5  Z " stroke-width="1" stroke="#1890ff" fill="none" />
  </g>
</svg>