<?xml version="1.0" encoding="utf-8"?>
<svg version="1.1" xmlns:xlink="http://www.w3.org/1999/xlink" width="14px" height="14px" xmlns="http://www.w3.org/2000/svg">
  <g transform="matrix(1 0 0 1 -112 -140 )">
    <path d="M 119 140  C 122.92 140  126 143.08  126 147  C 126 150.92  122.92 154  119 154  C 115.08 154  112 150.92  112 147  C 112 143.08  115.08 140  119 140  Z " fill-rule="nonzero" fill="#ffffff" stroke="none" fill-opacity="0" />
    <path d="M 119 140.5  C 122.64 140.5  125.5 143.36  125.5 147  C 125.5 150.64  122.64 153.5  119 153.5  C 115.36 153.5  112.5 150.64  112.5 147  C 112.5 143.36  115.36 140.5  119 140.5  Z " stroke-width="1" stroke="#d9d9d9" fill="none" />
  </g>
</svg>