<svg t="1695028334933" class="icon" viewBox="0 0 1024 1024" version="1.1" xmlns="http://www.w3.org/2000/svg" p-id="9582" width="200" height="200"><path d="M742.442667 64c83.114667 4.864 158.037333 45.866667 196.821333 137.130667 39.424 92.672 21.888 178.901333-46.08 252.586666-48.128 52.053333-99.84 100.864-150.357333 150.656-21.930667 21.674667-57.088 22.357333-76.074667 2.389334-19.2-20.181333-17.152-47.957333 5.973333-71.168 49.578667-49.749333 99.84-98.858667 148.906667-149.077334 73.941333-75.648 41.088-195.968-61.013333-223.146666-42.496-11.221333-83.285333-3.413333-115.584 26.624-51.968 48.384-100.864 99.882667-152.618667 148.309333-10.965333 10.24-29.141333 19.157333-43.349333 18.218667-38.058667-2.304-57.301333-48.426667-30.976-75.904 56.618667-58.965333 114.389333-117.077333 175.189333-171.648 36.992-33.28 85.205333-44.672 149.162667-44.970667zM64 729.770667c0.384-63.616 22.570667-118.613333 67.114667-163.968 49.237333-50.090667 99.2-99.456 149.077333-148.906667 23.722667-23.509333 52.864-25.301333 72.96-5.12 20.821333 21.077333 18.816 47.616-5.888 72.448-47.488 47.658667-95.786667 94.72-142.848 142.933333-58.154667 59.434667-60.586667 139.733333-6.997333 193.621334 51.285333 51.626667 136.106667 51.84 189.696-0.384 48.768-47.488 96.170667-96.426667 144.768-144 29.184-28.501333 73.557333-18.346667 81.28 20.053333 2.773333 13.824-2.816 34.645333-12.373334 44.757333-52.821333 55.68-105.6 111.786667-163.157333 162.304-70.442667 61.866667-153.002667 72.106667-239.061333 34.645334-83.2-36.266667-134.357333-117.930667-134.570667-208.384z" fill="#2f54eb" p-id="9583" data-spm-anchor-id="a313x.search_index.0.i8.43e83a814jQHra" class=""></path><path d="M708.522667 366.933333c-3.072 5.76-6.613333 18.261333-14.677334 26.453334a45590.101333 45590.101333 0 0 1-292.053333 293.802666c-20.778667 20.778667-50.346667 19.370667-69.888-0.384-19.712-19.882667-19.2-47.189333 2.773333-69.248 96-96.213333 192.341333-192.256 288.597334-288.170666 15.573333-15.573333 33.877333-22.186667 55.210666-12.885334 19.029333 8.234667 28.672 23.338667 30.037334 50.432z" fill="#2f54eb" p-id="9584" data-spm-anchor-id="a313x.search_index.0.i5.43e83a814jQHra" class=""></path></svg>