<?xml version="1.0" encoding="utf-8"?>
<svg version="1.1" xmlns:xlink="http://www.w3.org/1999/xlink" width="1161px" height="103px" xmlns="http://www.w3.org/2000/svg">
  <g transform="matrix(1 0 0 1 -10 -948 )">
    <path d="M 0.5 0  L 0.5 101.528505392912  C 0 101.792542372881  0.720225776105357 102  1.63687676387583 102.5  L 1158.36312323612 102.5  C 1159.27977422389 102  1160 101.792542372881  1160.5 101.528505392912  L 1160.5 0  L 0.5 0  Z " fill-rule="nonzero" fill="#ffffff" stroke="none" transform="matrix(1 0 0 1 10 948 )" />
    <path d="M 0.5 0  L 0.5 101.528505392912  C 0 101.792542372881  0.720225776105357 102  1.63687676387583 102.5  L 1158.36312323612 102.5  C 1159.27977422389 102  1160 101.792542372881  1160.5 101.528505392912  L 1160.5 0  " stroke-width="1" stroke="#e9e9e9" fill="none" transform="matrix(1 0 0 1 10 948 )" />
  </g>
</svg>