<?xml version="1.0" encoding="utf-8"?>
<svg version="1.1" xmlns:xlink="http://www.w3.org/1999/xlink" width="72px" height="28px" xmlns="http://www.w3.org/2000/svg">
  <g transform="matrix(1 0 0 1 -1495 -517 )">
    <path d="M 1495.5 521  A 3.5 3.5 0 0 1 1499 517.5 L 1563 517.5  A 3.5 3.5 0 0 1 1566.5 521 L 1566.5 541  A 3.5 3.5 0 0 1 1563 544.5 L 1499 544.5  A 3.5 3.5 0 0 1 1495.5 541 L 1495.5 521  Z " fill-rule="nonzero" fill="#409eff" stroke="none" />
    <path d="M 1495.5 521  A 3.5 3.5 0 0 1 1499 517.5 L 1563 517.5  A 3.5 3.5 0 0 1 1566.5 521 L 1566.5 541  A 3.5 3.5 0 0 1 1563 544.5 L 1499 544.5  A 3.5 3.5 0 0 1 1495.5 541 L 1495.5 521  Z " stroke-width="1" stroke="#409eff" fill="none" />
  </g>
</svg>