<?xml version="1.0" encoding="utf-8"?>
<svg version="1.1" xmlns:xlink="http://www.w3.org/1999/xlink" width="145px" height="20px" xmlns="http://www.w3.org/2000/svg">
  <defs>
    <mask fill="white" id="clip153">
      <path d="M 0 16  L 0 4  C 0 1.75999999999999  1.75999999999999 0  4 0  L 28 0  L 141 0  C 143.24 0  145 1.75999999999999  145 4  L 145 16  C 145 18.24  143.24 20  141 20  L 4 20  C 1.75999999999999 20  0 18.24  0 16  Z " fill-rule="evenodd" />
    </mask>
  </defs>
  <g transform="matrix(1 0 0 1 -1318 -283 )">
    <path d="M 0 16  L 0 4  C 0 1.75999999999999  1.75999999999999 0  4 0  L 28 0  L 141 0  C 143.24 0  145 1.75999999999999  145 4  L 145 16  C 145 18.24  143.24 20  141 20  L 4 20  C 1.75999999999999 20  0 18.24  0 16  Z " fill-rule="nonzero" fill="#f5f5f5" stroke="none" transform="matrix(1 0 0 1 1318 283 )" />
    <path d="M 0 16  L 0 4  C 0 1.75999999999999  1.75999999999999 0  4 0  L 28 0  L 141 0  C 143.24 0  145 1.75999999999999  145 4  L 145 16  C 145 18.24  143.24 20  141 20  L 4 20  C 1.75999999999999 20  0 18.24  0 16  Z " stroke-width="2" stroke="#d9d9d9" fill="none" transform="matrix(1 0 0 1 1318 283 )" mask="url(#clip153)" />
  </g>
</svg>