<?xml version="1.0" encoding="utf-8"?>
<svg version="1.1" xmlns:xlink="http://www.w3.org/1999/xlink" width="56px" height="28px" xmlns="http://www.w3.org/2000/svg">
  <g transform="matrix(1 0 0 1 -1495 -237 )">
    <path d="M 1495.5 241  A 3.5 3.5 0 0 1 1499 237.5 L 1547 237.5  A 3.5 3.5 0 0 1 1550.5 241 L 1550.5 261  A 3.5 3.5 0 0 1 1547 264.5 L 1499 264.5  A 3.5 3.5 0 0 1 1495.5 261 L 1495.5 241  Z " fill-rule="nonzero" fill="#409eff" stroke="none" />
    <path d="M 1495.5 241  A 3.5 3.5 0 0 1 1499 237.5 L 1547 237.5  A 3.5 3.5 0 0 1 1550.5 241 L 1550.5 261  A 3.5 3.5 0 0 1 1547 264.5 L 1499 264.5  A 3.5 3.5 0 0 1 1495.5 261 L 1495.5 241  Z " stroke-width="1" stroke="#409eff" fill="none" />
  </g>
</svg>