<?xml version="1.0" encoding="utf-8"?>
<svg version="1.1" xmlns:xlink="http://www.w3.org/1999/xlink" width="73px" height="20px" xmlns="http://www.w3.org/2000/svg">
  <defs>
    <mask fill="white" id="clip1928">
      <path d="M 0 16  L 0 4  C 0 1.75999999999999  1.47678160919539 0  3.35632183908046 0  L 28.2819472616633 0  L 69.6436781609195 0  C 71.5232183908046 0  73 1.75999999999999  73 4  L 73 16  C 73 18.24  71.5232183908046 20  69.6436781609195 20  L 3.35632183908046 20  C 1.47678160919539 20  0 18.24  0 16  Z " fill-rule="evenodd" />
    </mask>
  </defs>
  <g transform="matrix(1 0 0 1 -714 -918 )">
    <path d="M 0 16  L 0 4  C 0 1.75999999999999  1.47678160919539 0  3.35632183908046 0  L 28.2819472616633 0  L 69.6436781609195 0  C 71.5232183908046 0  73 1.75999999999999  73 4  L 73 16  C 73 18.24  71.5232183908046 20  69.6436781609195 20  L 3.35632183908046 20  C 1.47678160919539 20  0 18.24  0 16  Z " fill-rule="nonzero" fill="#e6fffb" stroke="none" transform="matrix(1 0 0 1 714 918 )" />
    <path d="M 0 16  L 0 4  C 0 1.75999999999999  1.47678160919539 0  3.35632183908046 0  L 28.2819472616633 0  L 69.6436781609195 0  C 71.5232183908046 0  73 1.75999999999999  73 4  L 73 16  C 73 18.24  71.5232183908046 20  69.6436781609195 20  L 3.35632183908046 20  C 1.47678160919539 20  0 18.24  0 16  Z " stroke-width="2" stroke="#87e8de" fill="none" transform="matrix(1 0 0 1 714 918 )" mask="url(#clip1928)" />
  </g>
</svg>