<?xml version="1.0" encoding="utf-8"?>
<svg version="1.1" xmlns:xlink="http://www.w3.org/1999/xlink" width="101px" height="20px" xmlns="http://www.w3.org/2000/svg">
  <defs>
    <mask fill="white" id="clip1705">
      <path d="M 0 16  L 0 4  C 0 1.75999999999999  2.04321839080459 0  4.64367816091954 0  L 39.1298174442191 0  L 96.3563218390805 0  C 98.9567816091954 0  101 1.75999999999999  101 4  L 101 16  C 101 18.24  98.9567816091954 20  96.3563218390805 20  L 4.64367816091954 20  C 2.04321839080459 20  0 18.24  0 16  Z " fill-rule="evenodd" />
    </mask>
  </defs>
  <g transform="matrix(1 0 0 1 -714 -1015 )">
    <path d="M 0 16  L 0 4  C 0 1.75999999999999  2.04321839080459 0  4.64367816091954 0  L 39.1298174442191 0  L 96.3563218390805 0  C 98.9567816091954 0  101 1.75999999999999  101 4  L 101 16  C 101 18.24  98.9567816091954 20  96.3563218390805 20  L 4.64367816091954 20  C 2.04321839080459 20  0 18.24  0 16  Z " fill-rule="nonzero" fill="#e6fffb" stroke="none" transform="matrix(1 0 0 1 714 1015 )" />
    <path d="M 0 16  L 0 4  C 0 1.75999999999999  2.04321839080459 0  4.64367816091954 0  L 39.1298174442191 0  L 96.3563218390805 0  C 98.9567816091954 0  101 1.75999999999999  101 4  L 101 16  C 101 18.24  98.9567816091954 20  96.3563218390805 20  L 4.64367816091954 20  C 2.04321839080459 20  0 18.24  0 16  Z " stroke-width="2" stroke="#87e8de" fill="none" transform="matrix(1 0 0 1 714 1015 )" mask="url(#clip1705)" />
  </g>
</svg>