<?xml version="1.0" encoding="utf-8"?>
<svg version="1.1" xmlns:xlink="http://www.w3.org/1999/xlink" width="55px" height="20px" xmlns="http://www.w3.org/2000/svg">
  <defs>
    <mask fill="white" id="clip1707">
      <path d="M 0 16  L 0 4  C 0 1.76000000000022  1.16626506024096 0  2.65060240963855 0  L 30.2610441767068 0  L 52.3493975903614 0  C 53.833734939759 0  55 1.76000000000022  55 4  L 55 16  C 55 18.2399999999998  53.833734939759 20  52.3493975903614 20  L 2.65060240963855 20  C 1.16626506024096 20  0 18.2399999999998  0 16  Z " fill-rule="evenodd" />
    </mask>
  </defs>
  <g transform="matrix(1 0 0 1 -714 -2367 )">
    <path d="M 0 16  L 0 4  C 0 1.76000000000022  1.16626506024096 0  2.65060240963855 0  L 30.2610441767068 0  L 52.3493975903614 0  C 53.833734939759 0  55 1.76000000000022  55 4  L 55 16  C 55 18.2399999999998  53.833734939759 20  52.3493975903614 20  L 2.65060240963855 20  C 1.16626506024096 20  0 18.2399999999998  0 16  Z " fill-rule="nonzero" fill="#e6f7ff" stroke="none" transform="matrix(1 0 0 1 714 2367 )" />
    <path d="M 0 16  L 0 4  C 0 1.76000000000022  1.16626506024096 0  2.65060240963855 0  L 30.2610441767068 0  L 52.3493975903614 0  C 53.833734939759 0  55 1.76000000000022  55 4  L 55 16  C 55 18.2399999999998  53.833734939759 20  52.3493975903614 20  L 2.65060240963855 20  C 1.16626506024096 20  0 18.2399999999998  0 16  Z " stroke-width="2" stroke="#91d5ff" fill="none" transform="matrix(1 0 0 1 714 2367 )" mask="url(#clip1707)" />
  </g>
</svg>