<?xml version="1.0" encoding="utf-8"?>
<svg version="1.1" xmlns:xlink="http://www.w3.org/1999/xlink" width="55px" height="20px" xmlns="http://www.w3.org/2000/svg">
  <defs>
    <mask fill="white" id="clip102">
      <path d="M 0 16  L 0 4  C 0 1.76000000000022  1.64067796610169 0  3.72881355932203 0  L 16.6760828625236 0  L 51.271186440678 0  C 53.3593220338983 0  55 1.76000000000022  55 4  L 55 16  C 55 18.2399999999998  53.3593220338983 20  51.271186440678 20  L 3.72881355932203 20  C 1.64067796610169 20  0 18.2399999999998  0 16  Z " fill-rule="evenodd" />
    </mask>
  </defs>
  <g transform="matrix(1 0 0 1 -1184 -2066 )">
    <path d="M 0 16  L 0 4  C 0 1.76000000000022  1.64067796610169 0  3.72881355932203 0  L 16.6760828625236 0  L 51.271186440678 0  C 53.3593220338983 0  55 1.76000000000022  55 4  L 55 16  C 55 18.2399999999998  53.3593220338983 20  51.271186440678 20  L 3.72881355932203 20  C 1.64067796610169 20  0 18.2399999999998  0 16  Z " fill-rule="nonzero" fill="#f9f0ff" stroke="none" transform="matrix(1 0 0 1 1184 2066 )" />
    <path d="M 0 16  L 0 4  C 0 1.76000000000022  1.64067796610169 0  3.72881355932203 0  L 16.6760828625236 0  L 51.271186440678 0  C 53.3593220338983 0  55 1.76000000000022  55 4  L 55 16  C 55 18.2399999999998  53.3593220338983 20  51.271186440678 20  L 3.72881355932203 20  C 1.64067796610169 20  0 18.2399999999998  0 16  Z " stroke-width="2" stroke="#d3adf7" fill="none" transform="matrix(1 0 0 1 1184 2066 )" mask="url(#clip102)" />
  </g>
</svg>