<?xml version="1.0" encoding="utf-8"?>
<svg version="1.1" xmlns:xlink="http://www.w3.org/1999/xlink" width="14px" height="14px" xmlns="http://www.w3.org/2000/svg">
  <g transform="matrix(1 0 0 1 -1241 -18 )">
    <path d="M 7 13.375  C 7.08974358974359 13.375  7.13461538461539 13.3333333333333  7.13461538461538 13.25  C 7.13461538461539 13.1666666666667  7.08974358974359 13.125  7 13.125  C 6.66907051282051 13.125  6.38441506410257 13.0143229166667  6.14603365384615 12.79296875  C 5.90765224358974 12.5716145833333  5.78846153846154 12.3072916666667  5.78846153846154 12  C 5.78846153846154 11.9166666666667  5.74358974358974 11.875  5.65384615384615 11.875  C 5.56410256410256 11.875  5.51923076923077 11.9166666666667  5.51923076923077 12  C 5.51923076923077 12.3802083333333  5.66366185897436 12.7044270833333  5.95252403846154 12.97265625  C 6.24138621794872 13.2408854166667  6.59054487179487 13.375  7 13.375  Z M 3.76923076923077 4.5  C 3.76923076923077 7.27083333333333  3.02323717948718 9.4375  1.53125 11  L 12.46875 11  C 10.9767628205128 9.4375  10.2307692307692 7.27083333333333  10.2307692307692 4.5  C 10.2307692307692 4.234375  10.1634615384615 3.9609375  10.0288461538462 3.6796875  C 9.89423076923077 3.3984375  9.70072115384615 3.13020833333333  9.44831730769231 2.875  C 9.19591346153846 2.61979166666667  8.85516826923077 2.41015625  8.42608173076923 2.24609375  C 7.99699519230769 2.08203125  7.52163461538462 2  7 2  C 6.47836538461539 2  6.00300480769231 2.08203125  5.57391826923077 2.24609375  C 5.14483173076923 2.41015625  4.80408653846154 2.61979166666667  4.55168269230769 2.875  C 4.29927884615385 3.13020833333333  4.10576923076923 3.3984375  3.97115384615385 3.6796875  C 3.83653846153846 3.9609375  3.76923076923077 4.234375  3.76923076923077 4.5  Z M 13.234375 10.3125  C 13.464342948718 10.5520833333333  13.7195512820513 10.78125  14 11  C 14 11.2708333333333  13.8934294871795 11.5052083333333  13.6802884615385 11.703125  C 13.4671474358974 11.9010416666667  13.2147435897436 12  12.9230769230769 12  L 9.15384615384615 12  C 9.15384615384615 12.5520833333333  8.94350961538462 13.0234375  8.52283653846154 13.4140625  C 8.10216346153846 13.8046875  7.59455128205128 14  7 14  C 6.40544871794872 14  5.89783653846154 13.8046875  5.47716346153846 13.4140625  C 5.05649038461539 13.0234375  4.84615384615385 12.5520833333333  4.84615384615385 12  L 1.07692307692308 12  C 0.78525641025641 12  0.532852564102564 11.9010416666667  0.319711538461538 11.703125  C 0.106570512820513 11.5052083333333  0 11.2708333333333  0 11  C 0.280448717948718 10.78125  0.535657051282051 10.5520833333333  0.765625 10.3125  C 0.995592948717949 10.0729166666667  1.23397435897436 9.76171875  1.48076923076923 9.37890625  C 1.7275641025641 8.99609375  1.9364983974359 8.58333333333333  2.10757211538462 8.140625  C 2.27864583333333 7.69791666666667  2.41887019230769 7.16145833333333  2.52824519230769 6.53125  C 2.63762019230769 5.90104166666667  2.69230769230769 5.22395833333333  2.69230769230769 4.5  C 2.69230769230769 3.70833333333333  3.02043269230769 2.97265625  3.67668269230769 2.29296875  C 4.33293269230769 1.61328125  5.19391025641026 1.20052083333333  6.25961538461539 1.0546875  C 6.21474358974359 0.955729166666665  6.19230769230769 0.854166666666667  6.19230769230769 0.75  C 6.19230769230769 0.541666666666666  6.27083333333333 0.364583333333333  6.42788461538462 0.21875  C 6.5849358974359 0.0729166666666672  6.77564102564103 0  7 0  C 7.22435897435898 0  7.4150641025641 0.0729166666666672  7.57211538461538 0.21875  C 7.72916666666667 0.364583333333333  7.80769230769231 0.541666666666666  7.80769230769231 0.75  C 7.80769230769231 0.854166666666667  7.78525641025641 0.955729166666665  7.74038461538462 1.0546875  C 8.80608974358974 1.20052083333333  9.66706730769231 1.61328125  10.3233173076923 2.29296875  C 10.9795673076923 2.97265625  11.3076923076923 3.70833333333333  11.3076923076923 4.5  C 11.3076923076923 5.22395833333333  11.3623798076923 5.90104166666667  11.4717548076923 6.53125  C 11.5811298076923 7.16145833333333  11.7213541666667 7.69791666666667  11.8924278846154 8.140625  C 12.0635016025641 8.58333333333333  12.2724358974359 8.99609375  12.5192307692308 9.37890625  C 12.7660256410256 9.76171875  13.0044070512821 10.0729166666667  13.234375 10.3125  Z " fill-rule="nonzero" fill="#ffffff" stroke="none" transform="matrix(1 0 0 1 1241 18 )" />
  </g>
</svg>