<?xml version="1.0" encoding="utf-8"?>
<svg version="1.1" xmlns:xlink="http://www.w3.org/1999/xlink" width="20px" height="20px" xmlns="http://www.w3.org/2000/svg">
  <defs>
    <mask fill="white" id="clip4">
      <path d="M 0 20  L 0 10.044776119403  L 0 0  L 20 0  L 20 20  L 7.1194029850746 20  L 0 20  Z " fill-rule="evenodd" />
    </mask>
  </defs>
  <g transform="matrix(1 0 0 1 -162 -237 )">
    <path d="M 0 20  L 0 10.044776119403  L 0 0  L 20 0  L 20 20  L 7.1194029850746 20  L 0 20  Z " fill-rule="nonzero" fill="#f5222d" stroke="none" transform="matrix(1 0 0 1 162 237 )" />
    <path d="M 0 20  L 0 10.044776119403  L 0 0  L 20 0  L 20 20  L 7.1194029850746 20  L 0 20  Z " stroke-width="2" stroke="#d7d7d7" fill="none" transform="matrix(1 0 0 1 162 237 )" mask="url(#clip4)" />
  </g>
</svg>