<?xml version="1.0" encoding="utf-8"?>
<svg version="1.1" xmlns:xlink="http://www.w3.org/1999/xlink" width="20px" height="22px" xmlns="http://www.w3.org/2000/svg">
  <g transform="matrix(1 0 0 1 -806 -80 )">
    <path d="M 12.265625 13.4921875  C 13.3193108974359 12.3331330128205  13.8461538461538 10.9383012820513  13.8461538461538 9.30769230769231  C 13.8461538461538 7.67708333333333  13.3193108974359 6.2822516025641  12.265625 5.12319711538462  C 11.2119391025641 3.96414262820513  9.94391025641026 3.38461538461539  8.46153846153846 3.38461538461539  C 6.97916666666667 3.38461538461539  5.71113782051282 3.96414262820513  4.65745192307692 5.12319711538462  C 3.60376602564103 6.2822516025641  3.07692307692308 7.67708333333333  3.07692307692308 9.30769230769231  C 3.07692307692308 10.9383012820513  3.60376602564103 12.3331330128205  4.65745192307692 13.4921875  C 5.71113782051282 14.6512419871795  6.97916666666667 15.2307692307692  8.46153846153846 15.2307692307692  C 9.94391025641026 15.2307692307692  11.2119391025641 14.6512419871795  12.265625 13.4921875  Z M 19.5552884615385 19.1177884615385  C 19.8517628205128 19.4439102564103  20 19.8405448717949  20 20.3076923076923  C 20 20.7660256410256  19.8477564102564 21.1626602564103  19.5432692307692 21.4975961538462  C 19.2387820512821 21.8325320512821  18.8782051282051 22  18.4615384615385 22  C 18.0288461538462 22  17.6682692307692 21.8325320512821  17.3798076923077 21.4975961538462  L 13.2572115384615 16.9759615384615  C 11.8229166666667 18.0689102564103  10.224358974359 18.6153846153846  8.46153846153846 18.6153846153846  C 7.31570512820513 18.6153846153846  6.21995192307692 18.3707932692308  5.17427884615385 17.8816105769231  C 4.12860576923077 17.3924278846154  3.22716346153846 16.7313701923077  2.46995192307692 15.8984375  C 1.71274038461538 15.0655048076923  1.11177884615385 14.0739182692308  0.667067307692308 12.9236778846154  C 0.222355769230769 11.7734375  0 10.568108974359  0 9.30769230769231  C 0 8.04727564102564  0.222355769230769 6.84194711538462  0.667067307692308 5.69170673076923  C 1.11177884615385 4.54146634615385  1.71274038461538 3.54987980769231  2.46995192307692 2.71694711538462  C 3.22716346153846 1.88401442307692  4.12860576923077 1.22295673076923  5.17427884615385 0.733774038461539  C 6.21995192307692 0.244591346153846  7.31570512820513 0  8.46153846153846 0  C 9.6073717948718 0  10.703125 0.244591346153846  11.7487980769231 0.733774038461539  C 12.7944711538462 1.22295673076923  13.6959134615385 1.88401442307692  14.453125 2.71694711538462  C 15.2103365384615 3.54987980769231  15.8112980769231 4.54146634615385  16.2560096153846 5.69170673076923  C 16.7007211538462 6.84194711538462  16.9230769230769 8.04727564102564  16.9230769230769 9.30769230769231  C 16.9230769230769 11.2467948717949  16.4262820512821 13.0052083333333  15.4326923076923 14.5829326923077  L 19.5552884615385 19.1177884615385  Z " fill-rule="nonzero" fill="#8c8c8c" stroke="none" transform="matrix(1 0 0 1 806 80 )" />
  </g>
</svg>