<?xml version="1.0" encoding="utf-8"?>
<svg version="1.1" xmlns:xlink="http://www.w3.org/1999/xlink" width="119px" height="44px" xmlns="http://www.w3.org/2000/svg">
  <g transform="matrix(1 0 0 1 -55 -70 )">
    <path d="M 117.5 43  L 1.5 43  L 1.5 4.09523809523809  C 0.621052631578947 2.08857142857142  2.53389473684206 0.511904761904762  4.96842105263158 0.511904761904762  L 69.3668016194332 0.511904761904762  L 113.031578947368 0.511904761904762  C 115.466105263158 0.511904761904762  117.378947368421 2.08857142857142  117.5 4.09523809523809  L 117.5 43  Z " fill-rule="nonzero" fill="#f2f2f2" stroke="none" transform="matrix(1 0 0 1 55 70 )" />
    <path d="M 1.5 43  L 1.5 4.09523809523809  C 0.621052631578947 2.08857142857142  2.53389473684206 0.511904761904762  4.96842105263158 0.511904761904762  L 69.3668016194332 0.511904761904762  L 113.031578947368 0.511904761904762  C 115.466105263158 0.511904761904762  117.378947368421 2.08857142857142  117.5 4.09523809523809  L 117.5 43  " stroke-width="1" stroke="#cccccc" fill="none" transform="matrix(1 0 0 1 55 70 )" />
  </g>
</svg>