<?xml version="1.0" encoding="utf-8"?>
<svg version="1.1" xmlns:xlink="http://www.w3.org/1999/xlink" width="41px" height="20px" xmlns="http://www.w3.org/2000/svg">
  <defs>
    <mask fill="white" id="clip181">
      <path d="M 0 15.4545454545455  L 0 4.54545454545455  C 0 2.00000000000004  2.20000000000005 0  5 0  L 14 0  L 36 0  C 38.8 0  41 2.00000000000004  41 4.54545454545455  L 41 15.4545454545455  C 41 18  38.8 20  36 20  L 5 20  C 2.20000000000005 20  0 18  0 15.4545454545455  Z " fill-rule="evenodd" />
    </mask>
  </defs>
  <g transform="matrix(1 0 0 1 -1046 -808 )">
    <path d="M 0 15.4545454545455  L 0 4.54545454545455  C 0 2.00000000000004  2.20000000000005 0  5 0  L 14 0  L 36 0  C 38.8 0  41 2.00000000000004  41 4.54545454545455  L 41 15.4545454545455  C 41 18  38.8 20  36 20  L 5 20  C 2.20000000000005 20  0 18  0 15.4545454545455  Z " fill-rule="nonzero" fill="#ffffff" stroke="none" transform="matrix(1 0 0 1 1046 808 )" />
    <path d="M 0 15.4545454545455  L 0 4.54545454545455  C 0 2.00000000000004  2.20000000000005 0  5 0  L 14 0  L 36 0  C 38.8 0  41 2.00000000000004  41 4.54545454545455  L 41 15.4545454545455  C 41 18  38.8 20  36 20  L 5 20  C 2.20000000000005 20  0 18  0 15.4545454545455  Z " stroke-width="2" stroke="#797979" fill="none" transform="matrix(1 0 0 1 1046 808 )" mask="url(#clip181)" />
  </g>
</svg>