<?xml version="1.0" encoding="utf-8"?>
<svg version="1.1" xmlns:xlink="http://www.w3.org/1999/xlink" width="20px" height="20px" xmlns="http://www.w3.org/2000/svg">
  <g>
    <path d="M 16.4732142857143 10.7291666666667  C 17.8720238095238 9.09722222222222  18.5714285714286 7.55208333333333  18.5714285714286 6.09375  C 18.5714285714286 5.390625  18.491443452381 4.76996527777778  18.3314732142857 4.23177083333333  C 18.1715029761905 3.69357638888889  17.9668898809524 3.26605902777778  17.7176339285714 2.94921875  C 17.4683779761905 2.63237847222222  17.1651785714286 2.37413194444444  16.8080357142857 2.17447916666667  C 16.4508928571429 1.97482638888889  16.1011904761905 1.84027777777778  15.7589285714286 1.77083333333333  C 15.4166666666667 1.70138888888889  15.0520833333333 1.66666666666667  14.6651785714286 1.66666666666667  C 14.2782738095238 1.66666666666667  13.8616071428571 1.77734375  13.4151785714286 1.99869791666667  C 12.96875 2.22005208333333  12.5576636904762 2.49782986111111  12.1819196428571 2.83203125  C 11.8061755952381 3.16623263888889  11.484375 3.47873263888889  11.2165178571429 3.76953125  C 10.9486607142857 4.06032986111111  10.7254464285714 4.32725694444444  10.546875 4.5703125  C 10.4129464285714 4.76128472222222  10.2306547619048 4.85677083333333  10 4.85677083333333  C 9.76934523809524 4.85677083333333  9.58705357142857 4.76128472222222  9.453125 4.5703125  C 9.27455357142857 4.32725694444444  9.05133928571429 4.06032986111111  8.78348214285714 3.76953125  C 8.515625 3.47873263888889  8.19382440476191 3.16623263888889  7.81808035714286 2.83203125  C 7.44233630952381 2.49782986111111  7.03125 2.22005208333333  6.58482142857143 1.99869791666667  C 6.13839285714286 1.77734375  5.72172619047619 1.66666666666667  5.33482142857143 1.66666666666667  C 4.94791666666667 1.66666666666667  4.58333333333333 1.70138888888889  4.24107142857143 1.77083333333333  C 3.89880952380952 1.84027777777778  3.54910714285714 1.97482638888889  3.19196428571429 2.17447916666667  C 2.83482142857143 2.37413194444444  2.53162202380952 2.63237847222222  2.28236607142857 2.94921875  C 2.03311011904762 3.26605902777778  1.82849702380952 3.69357638888889  1.66852678571429 4.23177083333333  C 1.50855654761905 4.76996527777778  1.42857142857143 5.390625  1.42857142857143 6.09375  C 1.42857142857143 7.55208333333333  2.12425595238095 9.09288194444444  3.515625 10.7161458333333  L 10 18.0078125  L 16.4732142857143 10.7291666666667  Z M 18.5825892857143 1.61458333333333  C 19.5275297619048 2.69097222222222  20 4.18402777777778  20 6.09375  C 20 8.01215277777778  19.1480654761905 9.96527777777778  17.4441964285714 11.953125  L 10.4910714285714 19.765625  C 10.3571428571429 19.921875  10.1934523809524 20  10 20  C 9.80654761904762 20  9.64285714285714 19.921875  9.50892857142857 19.765625  L 2.54464285714286 11.9270833333333  C 2.4702380952381 11.8576388888889  2.36793154761905 11.7447916666667  2.23772321428571 11.5885416666667  C 2.10751488095238 11.4322916666667  1.90104166666667 11.1480034722222  1.61830357142857 10.7356770833333  C 1.33556547619048 10.3233506944444  1.08258928571429 9.90017361111111  0.859375 9.46614583333333  C 0.636160714285714 9.03211805555556  0.437127976190476 8.50694444444444  0.262276785714286 7.890625  C 0.0874255952380952 7.27430555555555  0 6.67534722222222  0 6.09375  C 0 4.18402777777778  0.472470238095238 2.69097222222222  1.41741071428571 1.61458333333333  C 2.36235119047619 0.538194444444444  3.66815476190476 0  5.33482142857143 0  C 5.79613095238095 0  6.26674107142857 0.093315972222221  6.74665178571429 0.279947916666667  C 7.2265625 0.466579861111109  7.67299107142857 0.718315972222221  8.0859375 1.03515625  C 8.49888392857143 1.35199652777778  8.85416666666667 1.64930555555555  9.15178571428571 1.92708333333333  C 9.44940476190476 2.20486111111111  9.73214285714286 2.5  10 2.8125  C 10.2678571428571 2.5  10.5505952380952 2.20486111111111  10.8482142857143 1.92708333333333  C 11.1458333333333 1.64930555555555  11.5011160714286 1.35199652777778  11.9140625 1.03515625  C 12.3270089285714 0.718315972222221  12.7734375 0.466579861111109  13.2533482142857 0.279947916666667  C 13.7332589285714 0.093315972222221  14.203869047619 0  14.6651785714286 0  C 16.3318452380952 0  17.6376488095238 0.538194444444444  18.5825892857143 1.61458333333333  Z " fill-rule="nonzero" fill="#ff0000" stroke="none" />
  </g>
</svg>