<?xml version="1.0" encoding="utf-8"?>
<svg version="1.1" xmlns:xlink="http://www.w3.org/1999/xlink" width="20px" height="20px" xmlns="http://www.w3.org/2000/svg">
  <g>
    <path d="M 10.4910714285714 19.765625  C 10.3571428571429 19.921875  10.1934523809524 20  10 20  C 9.80654761904762 20  9.64285714285714 19.921875  9.50892857142857 19.765625  L 2.54464285714286 11.9270833333333  C 2.4702380952381 11.8576388888889  2.36793154761905 11.7447916666667  2.23772321428571 11.5885416666667  C 2.10751488095238 11.4322916666667  1.90104166666667 11.1480034722222  1.61830357142857 10.7356770833333  C 1.33556547619048 10.3233506944444  1.08258928571429 9.90017361111111  0.859375 9.46614583333333  C 0.636160714285714 9.03211805555556  0.437127976190476 8.50694444444444  0.262276785714286 7.890625  C 0.0874255952380952 7.27430555555555  0 6.67534722222222  0 6.09375  C 0 4.18402777777778  0.472470238095238 2.69097222222222  1.41741071428571 1.61458333333333  C 2.36235119047619 0.538194444444444  3.66815476190476 0  5.33482142857143 0  C 5.79613095238095 0  6.26674107142857 0.093315972222221  6.74665178571429 0.279947916666667  C 7.2265625 0.466579861111109  7.67299107142857 0.718315972222221  8.0859375 1.03515625  C 8.49888392857143 1.35199652777778  8.85416666666667 1.64930555555555  9.15178571428571 1.92708333333333  C 9.44940476190476 2.20486111111111  9.73214285714286 2.5  10 2.8125  C 10.2678571428571 2.5  10.5505952380952 2.20486111111111  10.8482142857143 1.92708333333333  C 11.1458333333333 1.64930555555555  11.5011160714286 1.35199652777778  11.9140625 1.03515625  C 12.3270089285714 0.718315972222221  12.7734375 0.466579861111109  13.2533482142857 0.279947916666667  C 13.7332589285714 0.093315972222221  14.203869047619 0  14.6651785714286 0  C 16.3318452380952 0  17.6376488095238 0.538194444444444  18.5825892857143 1.61458333333333  C 19.5275297619048 2.69097222222222  20 4.18402777777778  20 6.09375  C 20 8.01215277777778  19.1480654761905 9.96527777777778  17.4441964285714 11.953125  L 10.4910714285714 19.765625  Z " fill-rule="nonzero" fill="#ff0000" stroke="none" />
  </g>
</svg>