<?xml version="1.0" encoding="utf-8"?>
<svg version="1.1" xmlns:xlink="http://www.w3.org/1999/xlink" width="14px" height="14px" xmlns="http://www.w3.org/2000/svg">
  <g transform="matrix(1 0 0 1 -1378 -204 )">
    <path d="M 6.66845703125 5.974609375  C 6.15576171875 6.658203125  5.537109375 7  4.8125 7  C 4.087890625 7  3.46923828125 6.658203125  2.95654296875 5.974609375  C 2.44384765625 5.291015625  2.1875 4.46614583333333  2.1875 3.5  C 2.1875 2.53385416666667  2.44384765625 1.708984375  2.95654296875 1.025390625  C 3.46923828125 0.341796875  4.087890625 0  4.8125 0  C 5.537109375 0  6.15576171875 0.341796875  6.66845703125 1.025390625  C 7.18115234375 1.708984375  7.4375 2.53385416666667  7.4375 3.5  C 7.4375 4.46614583333333  7.18115234375 5.291015625  6.66845703125 5.974609375  Z M 11.375 4.95833333333333  L 11.375 8.16666666666667  L 13.78125 8.16666666666667  C 13.8404947916667 8.16666666666667  13.8917643229167 8.19552951388889  13.93505859375 8.25325520833333  C 13.9783528645833 8.31098090277778  14 8.37934027777778  14 8.45833333333333  L 14 10.2083333333333  C 14 10.2873263888889  13.9783528645833 10.3556857638889  13.93505859375 10.4134114583333  C 13.8917643229167 10.4711371527778  13.8404947916667 10.5  13.78125 10.5  L 11.375 10.5  L 11.375 13.7083333333333  C 11.375 13.7873263888889  11.3533528645833 13.8556857638889  11.31005859375 13.9134114583333  C 11.2667643229167 13.9711371527778  11.2154947916667 14  11.15625 14  L 9.84375 14  C 9.78450520833333 14  9.73323567708333 13.9711371527778  9.68994140625 13.9134114583333  C 9.64664713541667 13.8556857638889  9.625 13.7873263888889  9.625 13.7083333333333  L 9.625 10.5  L 7.21875 10.5  C 7.15950520833333 10.5  7.10823567708333 10.4711371527778  7.06494140625 10.4134114583333  C 7.02164713541667 10.3556857638889  7 10.2873263888889  7 10.2083333333333  L 7 8.45833333333333  C 7 8.37934027777778  7.02164713541667 8.31098090277778  7.06494140625 8.25325520833333  C 7.10823567708333 8.19552951388889  7.15950520833333 8.16666666666667  7.21875 8.16666666666667  L 9.625 8.16666666666667  L 9.625 4.95833333333333  C 9.625 4.87934027777778  9.64664713541667 4.81098090277778  9.68994140625 4.75325520833333  C 9.73323567708333 4.69552951388889  9.78450520833333 4.66666666666667  9.84375 4.66666666666667  L 11.15625 4.66666666666667  C 11.2154947916667 4.66666666666667  11.2667643229167 4.69552951388889  11.31005859375 4.75325520833333  C 11.3533528645833 4.81098090277778  11.375 4.87934027777778  11.375 4.95833333333333  Z M 6.34375 8.45833333333333  L 6.34375 10.2083333333333  C 6.34375 10.5243055555556  6.43033854166667 10.7977430555556  6.603515625 11.0286458333333  C 6.77669270833333 11.2595486111111  6.98177083333333 11.375  7.21875 11.375  L 8.96875 11.375  L 8.96875 13.5442708333333  C 8.65885416666667 13.8480902777778  8.26920572916667 14  7.7998046875 14  L 1.8251953125 14  C 1.27376302083333 14  0.831705729166667 13.7903645833333  0.4990234375 13.37109375  C 0.166341145833333 12.9518229166667  0 12.3745659722222  0 11.6393229166667  C 0 11.3172743055556  0.00797526041666667 11.0028211805556  0.02392578125 10.6959635416667  C 0.0398763020833333 10.3891059027778  0.07177734375 10.0579427083333  0.11962890625 9.70247395833333  C 0.16748046875 9.34700520833333  0.227864583333333 9.01736111111111  0.30078125 8.71354166666667  C 0.373697916666667 8.40972222222222  0.4716796875 8.11349826388889  0.5947265625 7.82486979166667  C 0.7177734375 7.53624131944444  0.859049479166667 7.29014756944444  1.0185546875 7.08658854166667  C 1.17805989583333 6.88302951388889  1.37288411458333 6.72048611111111  1.60302734375 6.59895833333333  C 1.83317057291667 6.47743055555555  2.08723958333333 6.41666666666667  2.365234375 6.41666666666667  C 2.45182291666667 6.41666666666667  2.54069010416667 6.46831597222222  2.6318359375 6.57161458333333  C 2.99186197916667 6.94227430555555  3.34391276041667 7.22026909722222  3.68798828125 7.40559895833333  C 4.03206380208333 7.59092881944444  4.40690104166667 7.68359375  4.8125 7.68359375  C 5.21809895833333 7.68359375  5.59293619791667 7.59092881944444  5.93701171875 7.40559895833333  C 6.28108723958333 7.22026909722222  6.63313802083333 6.94227430555555  6.9931640625 6.57161458333333  C 7.08430989583333 6.46831597222222  7.17317708333333 6.41666666666667  7.259765625 6.41666666666667  C 7.861328125 6.41666666666667  8.35579427083333 6.70833333333333  8.7431640625 7.29166666666667  L 7.21875 7.29166666666667  C 6.98177083333333 7.29166666666667  6.77669270833333 7.40711805555556  6.603515625 7.63802083333333  C 6.43033854166667 7.86892361111111  6.34375 8.14236111111111  6.34375 8.45833333333333  Z " fill-rule="nonzero" fill="#d7d7d7" stroke="none" transform="matrix(1 0 0 1 1378 204 )" />
  </g>
</svg>