<?xml version="1.0" encoding="utf-8"?>
<svg version="1.1" xmlns:xlink="http://www.w3.org/1999/xlink" width="21px" height="22px" xmlns="http://www.w3.org/2000/svg">
  <g transform="matrix(1 0 0 1 -340 -402 )">
    <path d="M 14.6268028846154 16.6902901785714  C 14.9801682692308 16.2933407738095  15.1568509615385 15.796130952381  15.1568509615385 15.1986607142857  C 15.1568509615385 14.7321428571429  15.1337139423077 14.2942708333333  15.0874399038462 13.8850446428571  C 15.0411658653846 13.475818452381  14.9528245192308 13.0645461309524  14.8224158653846 12.6512276785714  C 14.6920072115385 12.2379092261905  14.5258413461538 11.885974702381  14.3239182692308 11.5954241071429  C 14.1219951923077 11.3048735119048  13.8527644230769 11.0675223214286  13.5162259615385 10.8833705357143  C 13.1796875 10.69921875  12.796875 10.6071428571429  12.3677884615385 10.6071428571429  C 12.3173076923077 10.639880952381  12.1763822115385 10.7237723214286  11.9450120192308 10.8588169642857  C 11.7136418269231 10.9938616071429  11.5348557692308 11.0941220238095  11.4086538461538 11.1595982142857  C 11.2824519230769 11.2250744047619  11.1120793269231 11.3069196428571  10.8975360576923 11.4051339285714  C 10.6829927884615 11.5033482142857  10.4768629807692 11.5729166666667  10.2791466346154 11.6138392857143  C 10.0814302884615 11.6547619047619  9.88581730769231 11.6752232142857  9.69230769230769 11.6752232142857  C 9.49879807692308 11.6752232142857  9.30318509615385 11.6547619047619  9.10546875 11.6138392857143  C 8.90775240384615 11.5729166666667  8.70162259615385 11.5033482142857  8.48707932692308 11.4051339285714  C 8.27253605769231 11.3069196428571  8.10216346153846 11.2250744047619  7.97596153846154 11.1595982142857  C 7.84975961538462 11.0941220238095  7.67097355769231 10.9938616071429  7.43960336538462 10.8588169642857  C 7.20823317307692 10.7237723214286  7.06730769230769 10.639880952381  7.01682692307692 10.6071428571429  C 6.58774038461538 10.6071428571429  6.20492788461539 10.69921875  5.86838942307692 10.8833705357143  C 5.53185096153846 11.0675223214286  5.26262019230769 11.3048735119048  5.06069711538462 11.5954241071429  C 4.85877403846154 11.885974702381  4.69260817307692 12.2379092261905  4.56219951923077 12.6512276785714  C 4.43179086538462 13.0645461309524  4.34344951923077 13.475818452381  4.29717548076923 13.8850446428571  C 4.25090144230769 14.2942708333333  4.22776442307692 14.7321428571429  4.22776442307692 15.1986607142857  C 4.22776442307692 15.796130952381  4.40444711538462 16.2933407738095  4.7578125 16.6902901785714  C 5.11117788461538 17.0872395833333  5.54447115384615 17.2857142857143  6.05769230769231 17.2857142857143  L 13.3269230769231 17.2857142857143  C 13.8401442307692 17.2857142857143  14.2734375 17.0872395833333  14.6268028846154 16.6902901785714  Z M 12.0081129807692 10.1529017857143  C 12.6517427884615 9.53087797619048  12.9735576923077 8.78199404761905  12.9735576923077 7.90625  C 12.9735576923077 7.02232142857143  12.6517427884615 6.26934523809524  12.0081129807692 5.64732142857143  C 11.3644831730769 5.02529761904762  10.5925480769231 4.71428571428571  9.69230769230769 4.71428571428571  C 8.79206730769231 4.71428571428571  8.02013221153846 5.02529761904762  7.37650240384615 5.64732142857143  C 6.73287259615385 6.26934523809524  6.41105769230769 7.02232142857143  6.41105769230769 7.90625  C 6.41105769230769 8.78199404761905  6.73287259615385 9.53087797619048  7.37650240384615 10.1529017857143  C 8.02013221153846 10.7749255952381  8.79206730769231 11.0859375  9.69230769230769 11.0859375  C 10.5925480769231 11.0859375  11.3644831730769 10.7749255952381  12.0081129807692 10.1529017857143  Z M 20.8864182692308 14.2533482142857  C 20.9621394230769 14.3270089285714  21 14.421130952381  21 14.5357142857143  L 21 16.8928571428571  C 21 17.0074404761905  20.9621394230769 17.1015625  20.8864182692308 17.1752232142857  C 20.8106971153846 17.2488839285714  20.7139423076923 17.2857142857143  20.5961538461538 17.2857142857143  L 19.3846153846154 17.2857142857143  L 19.3846153846154 20.0357142857143  C 19.3846153846154 20.5758928571429  19.1868990384615 21.038318452381  18.7914663461538 21.4229910714286  C 18.3960336538462 21.8076636904762  17.9206730769231 22  17.3653846153846 22  L 2.01923076923077 22  C 1.46394230769231 22  0.988581730769231 21.8076636904762  0.593149038461538 21.4229910714286  C 0.197716346153846 21.038318452381  0 20.5758928571429  0 20.0357142857143  L 0 1.96428571428571  C 0 1.42410714285714  0.197716346153846 0.961681547619046  0.593149038461538 0.577008928571429  C 0.988581730769231 0.19233630952381  1.46394230769231 0  2.01923076923077 0  L 17.3653846153846 0  C 17.9206730769231 0  18.3960336538462 0.19233630952381  18.7914663461538 0.577008928571429  C 19.1868990384615 0.961681547619046  19.3846153846154 1.42410714285714  19.3846153846154 1.96428571428571  L 19.3846153846154 4.71428571428571  L 20.5961538461538 4.71428571428571  C 20.7139423076923 4.71428571428571  20.8106971153846 4.75111607142857  20.8864182692308 4.82477678571429  C 20.9621394230769 4.8984375  21 4.99255952380952  21 5.10714285714286  L 21 7.46428571428571  C 21 7.57886904761905  20.9621394230769 7.67299107142857  20.8864182692308 7.74665178571429  C 20.8106971153846 7.8203125  20.7139423076923 7.85714285714286  20.5961538461538 7.85714285714286  L 19.3846153846154 7.85714285714286  L 19.3846153846154 9.42857142857143  L 20.5961538461538 9.42857142857143  C 20.7139423076923 9.42857142857143  20.8106971153846 9.46540178571428  20.8864182692308 9.5390625  C 20.9621394230769 9.61272321428572  21 9.70684523809524  21 9.82142857142857  L 21 12.1785714285714  C 21 12.2931547619048  20.9621394230769 12.3872767857143  20.8864182692308 12.4609375  C 20.8106971153846 12.5345982142857  20.7139423076923 12.5714285714286  20.5961538461538 12.5714285714286  L 19.3846153846154 12.5714285714286  L 19.3846153846154 14.1428571428571  L 20.5961538461538 14.1428571428571  C 20.7139423076923 14.1428571428571  20.8106971153846 14.1796875  20.8864182692308 14.2533482142857  Z " fill-rule="nonzero" fill="#d7d7d7" stroke="none" transform="matrix(1 0 0 1 340 402 )" />
  </g>
</svg>