<?xml version="1.0" encoding="utf-8"?>
<svg version="1.1" xmlns:xlink="http://www.w3.org/1999/xlink" width="14px" height="14px" viewBox="154 318  14 14" xmlns="http://www.w3.org/2000/svg">
  <path d="M 154.5 320  A 1.5 1.5 0 0 1 156 318.5 L 166 318.5  A 1.5 1.5 0 0 1 167.5 320 L 167.5 330  A 1.5 1.5 0 0 1 166 331.5 L 156 331.5  A 1.5 1.5 0 0 1 154.5 330 L 154.5 320  Z " fill-rule="nonzero" fill="#1890ff" stroke="none" />
  <path d="M 154.5 320  A 1.5 1.5 0 0 1 156 318.5 L 166 318.5  A 1.5 1.5 0 0 1 167.5 320 L 167.5 330  A 1.5 1.5 0 0 1 166 331.5 L 156 331.5  A 1.5 1.5 0 0 1 154.5 330 L 154.5 320  Z " stroke-width="1" stroke="#d9d9d9" fill="none" />
  <path d="M 157.5 325.5  L 160.5 328.5  " stroke-width="3" stroke="#d9d9d9" fill="none" />
  <path d="M 160.5 328.5  L 165.5 321.5  " stroke-width="3" stroke="#d9d9d9" fill="none" />
</svg>