<?xml version="1.0" encoding="utf-8"?>
<svg version="1.1" xmlns:xlink="http://www.w3.org/1999/xlink" width="46px" height="37px" xmlns="http://www.w3.org/2000/svg">
  <defs>
    <filter x="1614px" y="18px" width="46px" height="37px" filterUnits="userSpaceOnUse" id="filter151">
      <feOffset dx="0" dy="2" in="SourceAlpha" result="shadowOffsetInner" />
      <feGaussianBlur stdDeviation="2.5" in="shadowOffsetInner" result="shadowGaussian" />
      <feComposite in2="shadowGaussian" operator="atop" in="SourceAlpha" result="shadowComposite" />
      <feColorMatrix type="matrix" values="0 0 0 0 0  0 0 0 0 0  0 0 0 0 0  0 0 0 0.0980392156862745 0  " in="shadowComposite" />
    </filter>
    <g id="widget152">
      <path d="M 35.5546875 22.00078125  C 35.8515625 22.26796875  36 22.584375  36 22.95  L 36 25.65  C 36 26.015625  35.8515625 26.33203125  35.5546875 26.59921875  C 35.2578125 26.86640625  34.90625 27  34.5 27  L 1.5 27  C 1.09375 27  0.7421875 26.86640625  0.4453125 26.59921875  C 0.1484375 26.33203125  0 26.015625  0 25.65  L 0 22.95  C 0 22.584375  0.1484375 22.26796875  0.4453125 22.00078125  C 0.7421875 21.73359375  1.09375 21.6  1.5 21.6  L 34.5 21.6  C 34.90625 21.6  35.2578125 21.73359375  35.5546875 22.00078125  Z M 35.5546875 11.20078125  C 35.8515625 11.46796875  36 11.784375  36 12.15  L 36 14.85  C 36 15.215625  35.8515625 15.53203125  35.5546875 15.79921875  C 35.2578125 16.06640625  34.90625 16.2  34.5 16  L 1.5 16  C 1.09375 16.2  0.7421875 16.06640625  0.4453125 15.79921875  C 0.1484375 15.53203125  0 15.215625  0 14.85  L 0 12.15  C 0 11.784375  0.1484375 11.46796875  0.4453125 11.20078125  C 0.7421875 10.93359375  1.09375 10.8  1.5 11  L 34.5 11  C 34.90625 10.8  35.2578125 10.93359375  35.5546875 11.20078125  Z M 35.5546875 0.400781250000001  C 35.8515625 0.667968749999998  36 0.984374999999998  36 1.35  L 36 4.05  C 36 4.415625  35.8515625 4.73203125  35.5546875 4.99921875  C 35.2578125 5.26640625  34.90625 5.4  34.5 5.4  L 1.5 5.4  C 1.09375 5.4  0.7421875 5.26640625  0.4453125 4.99921875  C 0.1484375 4.73203125  0 4.415625  0 4.05  L 0 1.35  C 0 0.984374999999998  0.1484375 0.667968749999998  0.4453125 0.400781250000001  C 0.7421875 0.133593749999998  1.09375 0  1.5 0  L 34.5 0  C 34.90625 0  35.2578125 0.133593749999998  35.5546875 0.400781250000001  Z " fill-rule="nonzero" fill="#666666" stroke="none" transform="matrix(1 0 0 1 1619 21 )" />
    </g>
  </defs>
  <g transform="matrix(1 0 0 1 -1614 -18 )">
    <use xlink:href="#widget152" filter="url(#filter151)" />
    <use xlink:href="#widget152" />
  </g>
</svg>