<?xml version="1.0" encoding="utf-8"?>
<svg version="1.1" xmlns:xlink="http://www.w3.org/1999/xlink" width="14px" height="14px" viewBox="154 513  14 14" xmlns="http://www.w3.org/2000/svg">
  <path d="M 154.5 515  A 1.5 1.5 0 0 1 156 513.5 L 166 513.5  A 1.5 1.5 0 0 1 167.5 515 L 167.5 525  A 1.5 1.5 0 0 1 166 526.5 L 156 526.5  A 1.5 1.5 0 0 1 154.5 525 L 154.5 515  Z " fill-rule="nonzero" fill="#ffffff" stroke="none" />
  <path d="M 154.5 515  A 1.5 1.5 0 0 1 156 513.5 L 166 513.5  A 1.5 1.5 0 0 1 167.5 515 L 167.5 525  A 1.5 1.5 0 0 1 166 526.5 L 156 526.5  A 1.5 1.5 0 0 1 154.5 525 L 154.5 515  Z " stroke-width="1" stroke="#d9d9d9" fill="none" />
</svg>