<?xml version="1.0" encoding="utf-8"?>
<svg version="1.1" xmlns:xlink="http://www.w3.org/1999/xlink" width="14px" height="14px" viewBox="154 396  14 14" xmlns="http://www.w3.org/2000/svg">
  <path d="M 154.5 398  A 1.5 1.5 0 0 1 156 396.5 L 166 396.5  A 1.5 1.5 0 0 1 167.5 398 L 167.5 408  A 1.5 1.5 0 0 1 166 409.5 L 156 409.5  A 1.5 1.5 0 0 1 154.5 408 L 154.5 398  Z " fill-rule="nonzero" fill="#ffffff" stroke="none" />
  <path d="M 154.5 398  A 1.5 1.5 0 0 1 156 396.5 L 166 396.5  A 1.5 1.5 0 0 1 167.5 398 L 167.5 408  A 1.5 1.5 0 0 1 166 409.5 L 156 409.5  A 1.5 1.5 0 0 1 154.5 408 L 154.5 398  Z " stroke-width="1" stroke="#d9d9d9" fill="none" />
</svg>