<?xml version="1.0" encoding="utf-8"?>
<svg version="1.1" xmlns:xlink="http://www.w3.org/1999/xlink" width="109px" height="30px" xmlns="http://www.w3.org/2000/svg">
  <defs>
    <mask fill="white" id="clip1630">
      <path d="M 0 26  L 0 4  C 0 1.76  2.18 0  4.95454545454546 0  L 23.0535270740201 0  L 58.2497516145045 0  L 104.045454545455 0  C 106.82 0  109 1.76  109 4  L 109 26  C 109 28.24  106.82 30  104.045454545455 30  L 4.95454545454546 30  C 2.18 30  0 28.24  0 26  Z " fill-rule="evenodd" />
    </mask>
  </defs>
  <g transform="matrix(1 0 0 1 -245 -900 )">
    <path d="M 0 26  L 0 4  C 0 1.76  2.18 0  4.95454545454546 0  L 23.0535270740201 0  L 58.2497516145045 0  L 104.045454545455 0  C 106.82 0  109 1.76  109 4  L 109 26  C 109 28.24  106.82 30  104.045454545455 30  L 4.95454545454546 30  C 2.18 30  0 28.24  0 26  Z " fill-rule="nonzero" fill="#ffffff" stroke="none" transform="matrix(1 0 0 1 245 900 )" />
    <path d="M 0 26  L 0 4  C 0 1.76  2.18 0  4.95454545454546 0  L 23.0535270740201 0  L 58.2497516145045 0  L 104.045454545455 0  C 106.82 0  109 1.76  109 4  L 109 26  C 109 28.24  106.82 30  104.045454545455 30  L 4.95454545454546 30  C 2.18 30  0 28.24  0 26  Z " stroke-width="2" stroke="#dcdfe6" fill="none" transform="matrix(1 0 0 1 245 900 )" mask="url(#clip1630)" />
  </g>
</svg>