<?xml version="1.0" encoding="utf-8"?>
<svg version="1.1" xmlns:xlink="http://www.w3.org/1999/xlink" width="52px" height="30px" xmlns="http://www.w3.org/2000/svg">
  <g transform="matrix(1 0 0 1 -1848 -106 )">
    <path d="M 51.3567708333333 24.4453125  C 51.7855902777778 24.7421875  52 25.09375  52 25.5  L 52 28.5  C 52 28.90625  51.7855902777778 29.2578125  51.3567708333333 29.5546875  C 50.9279513888889 29.8515625  50.4201388888889 30  49.8333333333333 30  L 2.16666666666667 30  C 1.57986111111111 30  1.07204861111111 29.8515625  0.643229166666667 29.5546875  C 0.214409722222222 29.2578125  0 28.90625  0 28.5  L 0 25.5  C 0 25.09375  0.214409722222222 24.7421875  0.643229166666667 24.4453125  C 1.07204861111111 24.1484375  1.57986111111111 24  2.16666666666667 24  L 49.8333333333333 24  C 50.4201388888889 24  50.9279513888889 24.1484375  51.3567708333333 24.4453125  Z M 51.3567708333333 12.4453125  C 51.7855902777778 12.7421875  52 13.09375  52 13.5  L 52 16.5  C 52 16.90625  51.7855902777778 17.2578125  51.3567708333333 17.5546875  C 50.9279513888889 17.8515625  50.4201388888889 18  49.8333333333333 18  L 2.16666666666667 18  C 1.57986111111111 18  1.07204861111111 17.8515625  0.643229166666667 17.5546875  C 0.214409722222222 17.2578125  0 16.90625  0 16.5  L 0 13.5  C 0 13.09375  0.214409722222222 12.7421875  0.643229166666667 12.4453125  C 1.07204861111111 12.1484375  1.57986111111111 12  2.16666666666667 12  L 49.8333333333333 12  C 50.4201388888889 12  50.9279513888889 12.1484375  51.3567708333333 12.4453125  Z M 51.3567708333333 0.445312500000001  C 51.7855902777778 0.742187499999998  52 1.09375  52 1.5  L 52 4.5  C 52 4.90625  51.7855902777778 5.2578125  51.3567708333333 5.5546875  C 50.9279513888889 5.8515625  50.4201388888889 6  49.8333333333333 6  L 2.16666666666667 6  C 1.57986111111111 6  1.07204861111111 5.8515625  0.643229166666667 5.5546875  C 0.214409722222222 5.2578125  0 4.90625  0 4.5  L 0 1.5  C 0 1.09375  0.214409722222222 0.742187499999998  0.643229166666667 0.445312500000001  C 1.07204861111111 0.148437499999998  1.57986111111111 0  2.16666666666667 0  L 49.8333333333333 0  C 50.4201388888889 0  50.9279513888889 0.148437499999998  51.3567708333333 0.445312500000001  Z " fill-rule="nonzero" fill="#666666" stroke="none" transform="matrix(1 0 0 1 1848 106 )" />
  </g>
</svg>