<?xml version="1.0" encoding="utf-8"?>
<svg version="1.1" xmlns:xlink="http://www.w3.org/1999/xlink" width="225px" height="32px" xmlns="http://www.w3.org/2000/svg">
  <defs>
    <mask fill="white" id="clip1649">
      <path d="M 0 28  L 0 4  C 0 1.75999999999999  1.75999999999999 0  4 0  L 37.5 0  L 221 0  C 223.24 0  225 1.75999999999999  225 4  L 225 28  C 225 30.24  223.24 32  221 32  L 4 32  C 1.75999999999999 32  0 30.24  0 28  Z " fill-rule="evenodd" />
    </mask>
  </defs>
  <g transform="matrix(1 0 0 1 -1450 -368 )">
    <path d="M 0 28  L 0 4  C 0 1.75999999999999  1.75999999999999 0  4 0  L 37.5 0  L 221 0  C 223.24 0  225 1.75999999999999  225 4  L 225 28  C 225 30.24  223.24 32  221 32  L 4 32  C 1.75999999999999 32  0 30.24  0 28  Z " fill-rule="nonzero" fill="#ffffff" stroke="none" transform="matrix(1 0 0 1 1450 368 )" />
    <path d="M 0 28  L 0 4  C 0 1.75999999999999  1.75999999999999 0  4 0  L 37.5 0  L 221 0  C 223.24 0  225 1.75999999999999  225 4  L 225 28  C 225 30.24  223.24 32  221 32  L 4 32  C 1.75999999999999 32  0 30.24  0 28  Z " stroke-width="2" stroke="#d9d9d9" fill="none" transform="matrix(1 0 0 1 1450 368 )" mask="url(#clip1649)" />
  </g>
</svg>