<?xml version="1.0" encoding="utf-8"?>
<svg version="1.1" xmlns:xlink="http://www.w3.org/1999/xlink" width="1702px" height="282px" xmlns="http://www.w3.org/2000/svg">
  <g transform="matrix(1 0 0 1 0 -53 )">
    <path d="M 0.5 0  L 0.5 279.701078582434  C 0 280.428474576271  1.05612417685794 281  2.40028222013171 281.5  L 1698.59971777987 281.5  C 1699.94387582314 281  1701 280.428474576271  1701.5 279.701078582434  L 1701.5 0  L 0.5 0  Z " fill-rule="nonzero" fill="#ffffff" stroke="none" transform="matrix(1 0 0 1 0 53 )" />
    <path d="M 0.5 0  L 0.5 279.701078582434  C 0 280.428474576271  1.05612417685794 281  2.40028222013171 281.5  L 1698.59971777987 281.5  C 1699.94387582314 281  1701 280.428474576271  1701.5 279.701078582434  L 1701.5 0  " stroke-width="1" stroke="#e9e9e9" fill="none" transform="matrix(1 0 0 1 0 53 )" />
  </g>
</svg>