<?xml version="1.0" encoding="utf-8"?>
<svg version="1.1" xmlns:xlink="http://www.w3.org/1999/xlink" width="15px" height="18px" xmlns="http://www.w3.org/2000/svg">
  <g transform="matrix(1 0 0 1 -1377 -340 )">
    <path d="M 10.23193359375 4.1953125  C 10.59814453125 4.4921875  10.78125 4.84375  10.78125 5.25  C 10.78125 5.3515625  10.73486328125 5.439453125  10.64208984375 5.513671875  C 10.54931640625 5.587890625  10.439453125 5.625  10.3125 5.625  C 10.185546875 5.625  10.07568359375 5.587890625  9.98291015625 5.513671875  C 9.89013671875 5.439453125  9.84375 5.3515625  9.84375 5.25  C 9.84375 4.890625  9.580078125 4.61328125  9.052734375 4.41796875  C 8.525390625 4.22265625  8.0078125 4.125  7.5 4.125  C 7.373046875 4.125  7.26318359375 4.087890625  7.17041015625 4.013671875  C 7.07763671875 3.939453125  7.03125 3.8515625  7.03125 3.75  C 7.03125 3.6484375  7.07763671875 3.560546875  7.17041015625 3.486328125  C 7.26318359375 3.412109375  7.373046875 3.375  7.5 3.375  C 7.98828125 3.375  8.47412109375 3.4375  8.95751953125 3.5625  C 9.44091796875 3.6875  9.86572265625 3.8984375  10.23193359375 4.1953125  Z M 12.12890625 7.359375  C 12.79296875 6.7421875  13.125 6.0390625  13.125 5.25  C 13.125 4.6875  12.95654296875 4.1640625  12.61962890625 3.6796875  C 12.28271484375 3.1953125  11.84326171875 2.798828125  11.30126953125 2.490234375  C 10.75927734375 2.181640625  10.15869140625 1.939453125  9.49951171875 1.763671875  C 8.84033203125 1.587890625  8.173828125 1.5  7.5 1.5  C 6.826171875 1.5  6.15966796875 1.587890625  5.50048828125 1.763671875  C 4.84130859375 1.939453125  4.24072265625 2.181640625  3.69873046875 2.490234375  C 3.15673828125 2.798828125  2.71728515625 3.1953125  2.38037109375 3.6796875  C 2.04345703125 4.1640625  1.875 4.6875  1.875 5.25  C 1.875 6.0390625  2.20703125 6.7421875  2.87109375 7.359375  C 2.96875 7.4453125  3.11767578125 7.57421875  3.31787109375 7.74609375  C 3.51806640625 7.91796875  3.6669921875 8.046875  3.7646484375 8.1328125  C 5.0146484375 9.328125  5.703125 10.4921875  5.830078125 11.625  L 9.169921875 11.625  C 9.296875 10.4921875  9.9853515625 9.328125  11.2353515625 8.1328125  C 11.3330078125 8.046875  11.48193359375 7.91796875  11.68212890625 7.74609375  C 11.88232421875 7.57421875  12.03125 7.4453125  12.12890625 7.359375  Z M 14.34814453125 3.087890625  C 14.78271484375 3.755859375  15 4.4765625  15 5.25  C 15 6.4609375  14.4970703125 7.5078125  13.4912109375 8.390625  C 13.0517578125 8.7734375  12.68798828125 9.11328125  12.39990234375 9.41015625  C 12.11181640625 9.70703125  11.8212890625 10.080078125  11.5283203125 10.529296875  C 11.2353515625 10.978515625  11.0693359375 11.3984375  11.0302734375 11.7890625  C 11.4892578125 12.0078125  11.71875 12.328125  11.71875 12.75  C 11.71875 13.0390625  11.5966796875 13.2890625  11.3525390625 13.5  C 11.5966796875 13.7109375  11.71875 13.9609375  11.71875 14.25  C 11.71875 14.65625  11.4990234375 14.97265625  11.0595703125 15.19921875  C 11.1865234375 15.37890625  11.25 15.5625  11.25 15.75  C 11.25 16.109375  11.09619140625 16.38671875  10.78857421875 16.58203125  C 10.48095703125 16.77734375  10.1025390625 16.875  9.6533203125 16.875  C 9.4580078125 17.21875  9.1650390625 17.4921875  8.7744140625 17.6953125  C 8.3837890625 17.8984375  7.958984375 18  7.5 18  C 7.041015625 18  6.6162109375 17.8984375  6.2255859375 17.6953125  C 5.8349609375 17.4921875  5.5419921875 17.21875  5.3466796875 16.875  C 4.8974609375 16.875  4.51904296875 16.77734375  4.21142578125 16.58203125  C 3.90380859375 16.38671875  3.75 16.109375  3.75 15.75  C 3.75 15.5625  3.8134765625 15.37890625  3.9404296875 15.19921875  C 3.5009765625 14.97265625  3.28125 14.65625  3.28125 14.25  C 3.28125 13.9609375  3.4033203125 13.7109375  3.6474609375 13.5  C 3.4033203125 13.2890625  3.28125 13.0390625  3.28125 12.75  C 3.28125 12.328125  3.5107421875 12.0078125  3.9697265625 11.7890625  C 3.9306640625 11.3984375  3.7646484375 10.978515625  3.4716796875 10.529296875  C 3.1787109375 10.080078125  2.88818359375 9.70703125  2.60009765625 9.41015625  C 2.31201171875 9.11328125  1.9482421875 8.7734375  1.5087890625 8.390625  C 0.5029296875 7.5078125  0 6.4609375  0 5.25  C 0 4.4765625  0.21728515625 3.755859375  0.65185546875 3.087890625  C 1.08642578125 2.419921875  1.65771484375 1.865234375  2.36572265625 1.423828125  C 3.07373046875 0.982421874999998  3.87451171875 0.634765624999998  4.76806640625 0.380859374999999  C 5.66162109375 0.126953124999999  6.572265625 0  7.5 0  C 8.427734375 0  9.33837890625 0.126953124999999  10.23193359375 0.380859374999999  C 11.12548828125 0.634765624999998  11.92626953125 0.982421874999998  12.63427734375 1.423828125  C 13.34228515625 1.865234375  13.91357421875 2.419921875  14.34814453125 3.087890625  Z " fill-rule="nonzero" fill="#e6a23c" stroke="none" transform="matrix(1 0 0 1 1377 340 )" />
  </g>
</svg>