<svg t="1591155120536" class="icon" viewBox="0 0 1024 1024" version="1.1" xmlns="http://www.w3.org/2000/svg" p-id="13239" width="200" height="200"><path d="M270.528 894.464V129.536h224.704c67.136 0 120.768 16.064 160.896 48.128 40.256 32.064 60.224 74.624 60.224 127.616 0 42.176-11.904 79.36-35.776 111.616-23.872 32.256-56.768 55.168-98.496 68.672v1.984c52.032 5.888 93.504 25.6 124.608 59.008s46.72 75.84 46.72 127.104c0 65.856-23.616 119.104-70.848 159.744-47.232 40.704-107.776 60.992-181.504 60.992H270.528zM369.28 216v239.488h89.856c47.744 0 85.184-11.648 112.32-34.816 27.2-23.232 40.768-55.424 40.768-96.576 0-72.064-48.064-108.16-144.192-108.16H369.28z m0 325.376v266.624h118.528c51.648 0 91.584-11.968 119.68-35.776 28.096-23.872 42.24-57.088 42.24-99.52 0-87.552-59.392-131.392-178.24-131.392H369.28z" p-id="13240"></path></svg>