<?xml version="1.0" encoding="utf-8"?>
<svg version="1.1" xmlns:xlink="http://www.w3.org/1999/xlink" width="12px" height="13px" xmlns="http://www.w3.org/2000/svg">
  <g transform="matrix(1 0 0 1 -940 -205 )">
    <path d="M 11.7171717171717 9.71717171717172  C 11.9057239057239 9.92143658810325  12 10.1694725028058  12 10.4612794612795  C 12 10.7530864197531  11.9057239057239 11.0011223344557  11.7171717171717 11.2053872053872  L 10.3434343434343 12.6936026936027  C 10.1548821548822 12.8978675645342  9.92592592592593 13  9.65656565656566 13  C 9.38720538720539 13  9.15824915824916 12.8978675645342  8.96969696969697 12.6936026936027  L 6 9.47643097643098  L 3.03030303030303 12.6936026936027  C 2.84175084175084 12.8978675645342  2.61279461279461 13  2.34343434343434 13  C 2.07407407407407 13  1.84511784511785 12.8978675645342  1.65656565656566 12.6936026936027  L 0.282828282828283 11.2053872053872  C 0.0942760942760944 11.0011223344557  0 10.7530864197531  0 10.4612794612795  C 0 10.1694725028058  0.0942760942760944 9.92143658810325  0.282828282828283 9.71717171717172  L 3.25252525252525 6.5  L 0.282828282828283 3.28282828282828  C 0.0942760942760944 3.07856341189674  0 2.83052749719416  0 2.53872053872054  C 0 2.24691358024691  0.0942760942760944 1.99887766554433  0.282828282828283 1.79461279461279  L 1.65656565656566 0.306397306397306  C 1.84511784511785 0.102132435465768  2.07407407407407 0  2.34343434343434 0  C 2.61279461279461 0  2.84175084175084 0.102132435465768  3.03030303030303 0.306397306397306  L 6 3.52356902356902  L 8.96969696969697 0.306397306397306  C 9.15824915824916 0.102132435465768  9.38720538720539 0  9.65656565656566 0  C 9.92592592592593 0  10.1548821548822 0.102132435465768  10.3434343434343 0.306397306397306  L 11.7171717171717 1.79461279461279  C 11.9057239057239 1.99887766554433  12 2.24691358024691  12 2.53872053872054  C 12 2.83052749719416  11.9057239057239 3.07856341189674  11.7171717171717 3.28282828282828  L 8.74747474747475 6.5  L 11.7171717171717 9.71717171717172  Z " fill-rule="nonzero" fill="#949494" stroke="none" transform="matrix(1 0 0 1 940 205 )" />
  </g>
</svg>