<svg t="1591155295931" class="icon" viewBox="0 0 1024 1024" version="1.1" xmlns="http://www.w3.org/2000/svg" p-id="14696" width="200" height="200"><path d="M394.50624 270.49984c0-13.17888 10.69056-23.8592 23.8592-23.8592l392.32512 0c13.16864 0 23.8592 10.68032 23.8592 23.8592 0 13.17888-10.68032 23.8592-23.8592 23.8592L418.36544 294.35904C405.1968 294.35904 394.50624 283.67872 394.50624 270.49984zM418.36544 411.00288l254.49472 0c13.17888 0 23.8592-10.68032 23.8592-23.8592s-10.68032-23.8592-23.8592-23.8592L418.36544 363.28448c-13.16864 0-23.8592 10.67008-23.8592 23.8592S405.1968 411.00288 418.36544 411.00288zM810.69056 662.82496 418.36544 662.82496c-13.16864 0-23.8592 10.68032-23.8592 23.8592 0 13.17888 10.69056 23.8592 23.8592 23.8592l392.32512 0c13.16864 0 23.8592-10.68032 23.8592-23.8592C834.54976 673.49504 823.8592 662.82496 810.69056 662.82496zM672.84992 779.45856 418.36544 779.45856c-13.16864 0-23.8592 10.67008-23.8592 23.8592s10.69056 23.8592 23.8592 23.8592l254.49472 0c13.17888 0 23.8592-10.68032 23.8592-23.8592S686.0288 779.45856 672.84992 779.45856zM246.74304 422.72768l37.87776 0L284.6208 230.81984l-31.01696 0c-0.88064 10.02496-0.11264 18.08384-7.94624 24.15616-7.8336 6.07232-24.29952 9.10336-39.17824 9.10336l-5.40672 0 0 26.53184 45.6704 0L246.74304 422.72768zM232.76544 790.38464l47.5648-35.3792c16.39424-11.264 27.16672-21.7088 32.32768-31.34464 5.16096-9.63584 7.7312-19.99872 7.7312-31.08864 0-18.13504-6.06208-32.75776-18.16576-43.88864-12.11392-11.13088-28.02688-16.6912-47.75936-16.6912-19.02592 0-34.24256 5.632-45.64992 16.896-11.4176 11.264-17.11104 28.24192-17.11104 50.95424l36.68992 0c0-13.55776 2.39616-22.92736 7.19872-28.11904 4.79232-5.19168 11.3664-7.79264 19.73248-7.79264s14.98112 2.64192 19.8656 7.91552 7.3216 11.83744 7.3216 19.67104c0 7.8336-2.26304 14.90944-6.79936 21.248-4.52608 6.33856-17.13152 17.02912-37.81632 32.07168-17.68448 12.94336-40.86784 28.70272-48.03584 40.1408l-0.4096 38.92224 131.33824 0 0-33.52576L232.76544 790.3744z" p-id="14697"></path></svg>