<?xml version="1.0" encoding="utf-8"?>
<svg version="1.1" xmlns:xlink="http://www.w3.org/1999/xlink" width="100px" height="28px" xmlns="http://www.w3.org/2000/svg">
  <g transform="matrix(1 0 0 1 -15 -66 )">
    <path d="M 16 70  A 3 3 0 0 1 19 67 L 111 67  A 3 3 0 0 1 114 70 L 114 90  A 3 3 0 0 1 111 93 L 19 93  A 3 3 0 0 1 16 90 L 16 70  Z " fill-rule="nonzero" fill="#ffffff" stroke="none" />
    <path d="M 15.5 70  A 3.5 3.5 0 0 1 19 66.5 L 111 66.5  A 3.5 3.5 0 0 1 114.5 70 L 114.5 90  A 3.5 3.5 0 0 1 111 93.5 L 19 93.5  A 3.5 3.5 0 0 1 15.5 90 L 15.5 70  Z " stroke-width="1" stroke="#409eff" fill="none" stroke-opacity="0.996078431372549" />
  </g>
</svg>