<?xml version="1.0" encoding="utf-8"?>
<svg version="1.1" xmlns:xlink="http://www.w3.org/1999/xlink" width="6px" height="12px" xmlns="http://www.w3.org/2000/svg">
  <g transform="matrix(1 0 0 1 -1401 -27 )">
    <path d="M 5.74285714285714 8.88888888888889  C 5.85194805194805 8.88888888888889  5.92727272727273 8.93287037037037  5.96883116883117 9.02083333333333  C 6.01038961038961 9.1087962962963  5.9974025974026 9.18981481481481  5.92987012987013 9.26388888888889  L 3.2025974025974 11.9305555555556  C 3.15064935064935 11.9768518518519  3.09090909090909 12  3.02337662337662 12  C 2.95064935064935 12  2.88831168831169 11.9768518518519  2.83636363636364 11.9305555555556  L 0.0701298701298701 9.26388888888889  C 0.00259740259740259 9.18981481481481  -0.0103896103896104 9.1087962962963  0.0311688311688312 9.02083333333333  C 0.0779220779220779 8.93287037037037  0.153246753246753 8.88888888888889  0.257142857142857 8.88888888888889  L 2.0025974025974 8.88888888888889  L 2.0025974025974 0.222222222222222  C 2.0025974025974 0.157407407407406  2.02597402597403 0.104166666666667  2.07272727272727 0.0625000000000004  C 2.11948051948052 0.0208333333333339  2.17922077922078 0  2.25194805194805 0  L 3.74805194805195 0  C 3.82077922077922 0  3.88051948051948 0.0208333333333339  3.92727272727273 0.0625000000000004  C 3.97402597402597 0.104166666666667  3.9974025974026 0.157407407407406  3.9974025974026 0.222222222222222  L 3.9974025974026 8.88888888888889  L 5.74285714285714 8.88888888888889  Z " fill-rule="nonzero" fill="#409eff" stroke="none" fill-opacity="0.996078431372549" transform="matrix(1 0 0 1 1401 27 )" />
  </g>
</svg>