<?xml version="1.0" encoding="utf-8"?>
<svg version="1.1" xmlns:xlink="http://www.w3.org/1999/xlink" width="1702px" height="197px" xmlns="http://www.w3.org/2000/svg">
  <g transform="matrix(1 0 0 1 -1 -685 )">
    <path d="M 0.5 0  L 0.5 195.093990755008  C 0 195.601355932203  1.05612417685794 196  2.40028222013171 196.5  L 1698.59971777987 196.5  C 1699.94387582314 196  1701 195.601355932203  1701.5 195.093990755008  L 1701.5 0  L 0.5 0  Z " fill-rule="nonzero" fill="#ffffff" stroke="none" transform="matrix(1 0 0 1 1 685 )" />
    <path d="M 0.5 0  L 0.5 195.093990755008  C 0 195.601355932203  1.05612417685794 196  2.40028222013171 196.5  L 1698.59971777987 196.5  C 1699.94387582314 196  1701 195.601355932203  1701.5 195.093990755008  L 1701.5 0  " stroke-width="1" stroke="#e9e9e9" fill="none" transform="matrix(1 0 0 1 1 685 )" />
  </g>
</svg>