<?xml version="1.0" encoding="utf-8"?>
<svg version="1.1" xmlns:xlink="http://www.w3.org/1999/xlink" width="18px" height="18px" xmlns="http://www.w3.org/2000/svg">
  <defs>
    <path d="M 0 0  L 1024 0  L 1024 1024  L 0 1024  Z " fill-rule="evenodd" fill="black" id="path1609" />
    <clipPath id="clip1610">
      <use xlink:href="#path1609" />
    </clipPath>
    <filter x="-50.00%" y="-50.00%" width="200.00%" height="200.00%" filterUnits="objectBoundingBox" id="filter1611">
      <feColorMatrix type="matrix" values="1 0 0 0 0  0 1 0 0 0  0 0 1 0 0  0 0 0 1 0  " in="SourceGraphic" />
    </filter>
  </defs>
  <g transform="matrix(1 0 0 1 0 -2 )">
    <g transform="matrix(0.017578125 0 0 0.017578125 0 2 )" clip-path="url(#clip1610)" filter="url(#filter1611)">
      <path d="M896 544H128c-17.6 0-32-14.4-32-32s14.4-32 32-32h768c17.6 0 32 14.4 32 32s-14.4 32-32 32zM512 928c-17.6 0-32-14.4-32-32V128c0-17.6 14.4-32 32-32s32 14.4 32 32v768c0 17.6-14.4 32-32 32z" p-id="2586" fill="#cdcdcd"></path>
    </g>
  </g>
</svg>