<?xml version="1.0" encoding="utf-8"?>
<svg version="1.1" xmlns:xlink="http://www.w3.org/1999/xlink" width="18px" height="18px" xmlns="http://www.w3.org/2000/svg">
  <defs>
    <path d="M 0 0  L 1024 0  L 1024 1024  L 0 1024  Z " fill-rule="evenodd" fill="black" id="path1403" />
    <clipPath id="clip1404">
      <use xlink:href="#path1403" />
    </clipPath>
    <filter x="-50.00%" y="-50.00%" width="200.00%" height="200.00%" filterUnits="objectBoundingBox" id="filter1405">
      <feColorMatrix type="matrix" values="1 0 0 0 0  0 1 0 0 0  0 0 1 0 0  0 0 0 1 0  " in="SourceGraphic" />
    </filter>
    <mask fill="white" id="clip1406">
      <path d="M 2.5 19.5  C 1.39 19.5  0.5 18.61  0.5 17.5  L 0.5 4.5  C 0.5 3.39  1.39 2.5  2.5 2.5  L 15.5 2.5  C 16.61 2.5  17.5 3.39  17.5 4.5  L 17.5 17.5  C 17.5 18.61  16.61 19.5  15.5 19.5  L 2.5 19.5  " fill-rule="evenodd" />
    </mask>
  </defs>
  <g transform="matrix(1 0 0 1 0 -2 )">
    <g transform="matrix(0.017578125 0 0 0.017578125 0 2 )" clip-path="url(#clip1404)" filter="url(#filter1405)">
      <path d="M896 544H128c-17.6 0-32-14.4-32-32s14.4-32 32-32h768c17.6 0 32 14.4 32 32s-14.4 32-32 32zM512 928c-17.6 0-32-14.4-32-32V128c0-17.6 14.4-32 32-32s32 14.4 32 32v768c0 17.6-14.4 32-32 32z" p-id="2586" fill="#cdcdcd"></path>
    </g>
    <path d="M 2.5 17.5  L 2.5 4.5  L 15.5 4.5  L 15.5 17.5  L 2.5 17.5  Z " stroke-width="5" stroke-dasharray="45,20" stroke="#409eff" fill="none" stroke-opacity="0.996078431372549" mask="url(#clip1406)" />
  </g>
</svg>