<?xml version="1.0" encoding="utf-8"?>
<svg version="1.1" xmlns:xlink="http://www.w3.org/1999/xlink" width="60px" height="20px" xmlns="http://www.w3.org/2000/svg">
  <g transform="matrix(1 0 0 1 -187 -688 )">
    <path d="M 188 692  A 3 3 0 0 1 191 689 L 243 689  A 3 3 0 0 1 246 692 L 246 704  A 3 3 0 0 1 243 707 L 191 707  A 3 3 0 0 1 188 704 L 188 692  Z " fill-rule="nonzero" fill="#f5f5f5" stroke="none" fill-opacity="0" />
    <path d="M 187.5 692  A 3.5 3.5 0 0 1 191 688.5 L 243 688.5  A 3.5 3.5 0 0 1 246.5 692 L 246.5 704  A 3.5 3.5 0 0 1 243 707.5 L 191 707.5  A 3.5 3.5 0 0 1 187.5 704 L 187.5 692  Z " stroke-width="1" stroke-dasharray="3,1" stroke="#d9d9d9" fill="none" stroke-dashoffset="0.5" />
  </g>
</svg>