<?xml version="1.0" encoding="utf-8"?>
<svg version="1.1" xmlns:xlink="http://www.w3.org/1999/xlink" width="110px" height="43px" xmlns="http://www.w3.org/2000/svg">
  <defs>
    <linearGradient gradientUnits="userSpaceOnUse" x1="54.5" y1="42" x2="54.5" y2="0" id="LinearGradient137">
      <stop id="Stop138" stop-color="#409eff" offset="0.03" />
      <stop id="Stop139" stop-color="#ffffff" offset="0.04" />
    </linearGradient>
  </defs>
  <g transform="matrix(1 0 0 1 -259 -120 )">
    <path d="M 108.5 42  L 1.5 42  L 1.5 4  C 0.573684210526316 2.03999999999999  2.34063157894733 0.5  4.58947368421053 0.5  L 64.0761133603238 0.5  L 104.410526315789 0.5  C 106.659368421053 0.5  108.426315789474 2.03999999999999  108.5 4  L 108.5 42  Z " fill-rule="nonzero" fill="url(#LinearGradient137)" stroke="none" transform="matrix(1 0 0 1 259 120 )" />
    <path d="M 1.5 42  L 1.5 4  C 0.573684210526316 2.03999999999999  2.34063157894733 0.5  4.58947368421053 0.5  L 64.0761133603238 0.5  L 104.410526315789 0.5  C 106.659368421053 0.5  108.426315789474 2.03999999999999  108.5 4  L 108.5 42  " stroke-width="1" stroke="#cccccc" fill="none" transform="matrix(1 0 0 1 259 120 )" />
  </g>
</svg>