<?xml version="1.0" encoding="utf-8"?>
<svg version="1.1" xmlns:xlink="http://www.w3.org/1999/xlink" width="6px" height="12px" xmlns="http://www.w3.org/2000/svg">
  <g transform="matrix(1 0 0 1 -1402 -77 )">
    <path d="M 5.92987012987013 2.73611111111111  C 5.9974025974026 2.81018518518518  6.01038961038961 2.8912037037037  5.96883116883117 2.97916666666667  C 5.92207792207792 3.06712962962963  5.84675324675325 3.11111111111111  5.74285714285714 3.11111111111111  L 3.9974025974026 3.11111111111111  L 3.9974025974026 11.7777777777778  C 3.9974025974026 11.8425925925926  3.97402597402597 11.8958333333333  3.92727272727273 11.9375  C 3.88051948051948 11.9791666666667  3.82077922077922 12  3.74805194805195 12  L 2.25194805194805 12  C 2.17922077922078 12  2.11948051948052 11.9791666666667  2.07272727272727 11.9375  C 2.02597402597403 11.8958333333333  2.0025974025974 11.8425925925926  2.0025974025974 11.7777777777778  L 2.0025974025974 3.11111111111111  L 0.257142857142857 3.11111111111111  C 0.148051948051948 3.11111111111111  0.0727272727272727 3.06712962962963  0.0311688311688312 2.97916666666667  C -0.0103896103896104 2.8912037037037  0.00259740259740259 2.81018518518518  0.0701298701298701 2.73611111111111  L 2.7974025974026 0.0694444444444451  C 2.84935064935065 0.0231481481481479  2.90909090909091 0  2.97662337662338 0  C 3.04935064935065 0  3.11168831168831 0.0231481481481479  3.16363636363636 0.0694444444444451  L 5.92987012987013 2.73611111111111  Z " fill-rule="nonzero" fill="#409eff" stroke="none" fill-opacity="0.996078431372549" transform="matrix(1 0 0 1 1402 77 )" />
  </g>
</svg>