<?xml version="1.0" encoding="utf-8"?>
<svg version="1.1" xmlns:xlink="http://www.w3.org/1999/xlink" width="30px" height="30px" xmlns="http://www.w3.org/2000/svg">
  <g transform="matrix(1 0 0 1 -404 -181 )">
    <path d="M 419 181  C 427.4 181  434 187.6  434 196  C 434 204.4  427.4 211  419 211  C 410.6 211  404 204.4  404 196  C 404 187.6  410.6 181  419 181  Z " fill-rule="nonzero" fill="#d9001b" stroke="none" />
    <path d="M 419 181.5  C 427.12 181.5  433.5 187.88  433.5 196  C 433.5 204.12  427.12 210.5  419 210.5  C 410.88 210.5  404.5 204.12  404.5 196  C 404.5 187.88  410.88 181.5  419 181.5  Z " stroke-width="1" stroke="#ffffff" fill="none" />
  </g>
</svg>