<?xml version="1.0" encoding="utf-8"?>
<svg version="1.1" xmlns:xlink="http://www.w3.org/1999/xlink" width="324px" height="43px" xmlns="http://www.w3.org/2000/svg">
  <g transform="matrix(1 0 0 1 -208 -174 )">
    <path d="M 321.5 42  L 2.5 42  L 2.5 4  C 1.7 2.03999999999999  6.93599999999988 0.5  13.6 0.5  L 189.876923076923 0.5  L 309.4 0.5  C 316.064 0.5  321.3 2.03999999999999  321.5 4  L 321.5 42  Z " fill-rule="nonzero" fill="#f2f2f2" stroke="none" transform="matrix(1 0 0 1 208 174 )" />
    <path d="M 2.5 42  L 2.5 4  C 1.7 2.03999999999999  6.93599999999988 0.5  13.6 0.5  L 189.876923076923 0.5  L 309.4 0.5  C 316.064 0.5  321.3 2.03999999999999  321.5 4  L 321.5 42  " stroke-width="1" stroke="#cccccc" fill="none" transform="matrix(1 0 0 1 208 174 )" />
  </g>
</svg>