<?xml version="1.0" encoding="utf-8"?>
<svg version="1.1" xmlns:xlink="http://www.w3.org/1999/xlink" width="170px" height="170px" xmlns="http://www.w3.org/2000/svg">
  <g transform="matrix(1 0 0 1 -109 -43 )">
    <path d="M 31 123  L 47 123  L 47 139  L 31 139  L 31 123  Z M 31 31  L 47 31  L 47 47  L 31 47  L 31 31  Z M 123 31  L 139 31  L 139 47  L 123 47  L 123 31  Z M 16 108  L 16 154  L 62 154  L 62 108  L 16 108  Z M 16 16  L 16 62  L 62 62  L 62 16  L 16 16  Z M 108 16  L 108 62  L 154 62  L 154 16  L 108 16  Z M 0 92  L 78 92  L 78 170  L 0 170  L 0 92  Z M 123 154  L 139 154  L 139 170  L 123 170  L 123 154  Z M 154 154  L 170 154  L 170 170  L 154 170  L 154 154  Z M 154 92  L 170 92  L 170 139  L 123 139  L 123 123  L 108 123  L 108 170  L 92 170  L 92 92  L 139 92  L 139 108  L 154 108  L 154 92  Z M 0 0  L 78 0  L 78 78  L 0 78  L 0 0  Z M 92 0  L 170 0  L 170 78  L 92 78  L 92 0  Z " fill-rule="nonzero" fill="#000000" stroke="none" transform="matrix(1 0 0 1 109 43 )" />
  </g>
</svg>