<svg t="1695010947045" class="icon" viewBox="0 0 1024 1024" version="1.1" xmlns="http://www.w3.org/2000/svg" p-id="4550" width="200" height="200"><path d="M0 0h1024v1024H0z" fill="#FFFFFF" fill-opacity=".01" p-id="4551"></path><path d="M414.037333 696.192c-66.773333-11.264-123.605333-34.176-168.96-68.181333C171.733333 573.098667 128 489.813333 128 405.333333c0-54.016 18.432-106.581333 53.333333-152.490666 0.853333-9.045333 0.853333-26.624 0.853334-40.064 0-62.933333 0-117.248 35.712-140.8 16.042667-10.538667 36.053333-11.946667 54.954666-3.882667 17.365333 7.466667 33.578667 17.194667 49.237334 26.624 26.752 16.085333 51.968 31.36 69.589333 26.794667a495.829333 495.829333 0 0 1 257.749333 4.693333c13.098667 1.493333 56.149333-22.528 79.402667-35.242667a762.88 762.88 0 0 1 42.922667-22.357333c19.84-9.301333 40.448-7.850667 56.490666 4.010667 32.170667 23.765333 25.770667 69.76 17.749334 128-2.176 15.701333-5.290667 38.314667-5.333334 49.578666C876.928 296.789333 896 350.208 896 405.333333c0 87.594667-41.258667 170.837333-110.378667 222.72-39.936 29.866667-90.666667 51.370667-150.954666 63.914667l-17.322667-83.584c47.232-9.770667 87.765333-26.624 117.077333-48.64C782.165333 523.946667 810.666667 466.218667 810.666667 405.333333c0-37.845333-14.336-75.136-41.514667-107.861333-19.456-23.381333-14.762667-57.258667-7.722667-108.501333 0.853333-5.845333 1.792-12.842667 2.688-20.053334-47.829333 26.112-96.896 51.626667-139.008 39.125334a408.96 408.96 0 0 0-212.437333-3.797334c-51.968 13.269333-97.792-14.250667-134.528-36.394666l-9.642667-5.76c-0.981333 16.853333-0.981333 37.162667-0.981333 50.688 0 44.458667 0 68.992-14.506667 86.997333C227.029333 331.904 213.333333 368.384 213.333333 405.333333c0 56.917333 31.786667 116.096 82.901334 154.453334 34.346667 25.728 78.72 43.306667 131.968 52.266666l-14.165334 84.138667z" fill="#fff" p-id="4552"></path><path d="M426.709333 917.589333h-85.333333v-185.941333c0-35.242667 16.213333-70.997333 48.170667-106.154667l63.146666 57.344c-16.981333 18.730667-25.984 35.626667-25.984 48.853334v185.898666zM703.829333 917.589333h-85.333333v-184.618666c0-10.112-4.565333-28.245333-26.453333-56.96l67.925333-51.669334c29.482667 38.741333 43.861333 74.282667 43.861333 108.629334v184.618666z" fill="#fff" p-id="4553"></path><path d="M384.042667 843.093333H294.954667c-55.04 0-109.141333-43.306667-160.768-128.64-1.792-2.901333-3.754667-5.248-11.349334-6.229333l10.325334-84.650667c32.298667 3.925333 57.856 20.053333 73.984 46.677334 50.432 83.285333 81.962667 87.509333 87.808 87.509333h89.088v85.333333z" fill="#fff" p-id="4554"></path></svg>