<svg t="1695048468701" class="icon" viewBox="0 0 1024 1024" version="1.1" xmlns="http://www.w3.org/2000/svg" p-id="5071" width="200" height="200"><path d="M488.543107 658.498959c-119.41691-20.044981-229.024573-103.210329-283.61516-215.803415-46.487297-95.533528-49.899209-193.625989-9.382757-274.658893 12.36818-25.162849 52.884631-75.915035 48.193252-60.134943-7.250312 23.456893-11.941691 82.738859-9.809246 122.402332 6.397334 127.946689 79.326947 230.730529 217.082882 304.939608 93.827572 50.752187 218.788838 55.443565 312.61641 11.515202 18.765514-8.956268 45.20783-25.162849 58.855477-35.825072 13.221158-11.088713 24.309871-18.765514 24.309871-17.486048 0 9.382757-43.501874 65.252811-67.385256 87.003749-35.398584 31.986672-100.224906 65.252811-145.006248 74.635568-29.001249 5.970845-118.563932 8.10329-145.859225 3.411912z" fill="#0A68AA" p-id="5072"></path><path d="M618.622241 441.416077c-4.691379-0.852978-19.192003-3.838401-31.986672-6.397335s-39.663474-12.36818-59.708455-21.750937c-29.854227-14.500625-42.648896-23.883382-74.635569-56.296543-56.296543-56.723032-78.900458-107.901708-78.900458-179.978342 0-43.075385 9.809246-76.768013 31.986672-110.034153 8.956268-13.221158 16.63307-23.883382 17.059559-23.030404 0.852978 0.852978 0 16.206581-2.132445 34.972095-3.411912 37.10454 0.426489 83.165348 10.235735 115.578509 22.177426 72.503124 99.798417 144.153269 191.067055 175.713453 24.73636 8.529779 39.663474 10.662224 73.782591 11.088713 63.120367 0.426489 108.328197-15.780092 149.697626-53.737609 20.044981-18.339025 22.603915-19.618492 18.765514-9.382758-13.647647 36.251562-55.017076 77.194502-100.224906 98.518951-43.075385 20.897959-108.328197 31.986672-145.006247 24.73636z" fill="#0A68AA" p-id="5073"></path><path d="M667.668471 239.686797c-66.532278-21.324448-114.725531-81.459392-118.563931-148.418159-1.705956-32.83965 2.132445-49.47272 17.486047-75.062057l9.809246-16.206581-1.705955 26.015827c-5.544357 73.782591 45.20783 145.859225 122.402332 175.286964 32.413161 12.36818 83.165348 12.36818 114.299042 0.426488 20.897959-8.10329 22.177426-8.10329 18.339025-0.852977-7.250312 13.221158-34.545606 33.692628-55.017076 40.516451-25.589338 8.529779-77.620991 7.676801-107.04873-1.705956z" fill="#0A68AA" p-id="5074"></path><path d="M24.949604 1018.029155c1.279467-3.411912 3.838401-13.221158 5.544357-21.324449 2.132445-13.647647 4.26489-15.353603 15.353603-15.353602 10.662224 0 13.647647-2.558934 20.897959-19.192004 4.691379-10.662224 11.088713-34.119117 14.500624-52.458142 3.411912-17.912536 8.529779-40.94294 11.088713-51.178676l5.117868-18.339025 22.603915 0.852978c12.794669 0.426489 23.030404 2.132445 23.030404 3.411912s-6.823823 34.119117-15.780092 72.503123c-21.324448 94.68055-30.280716 107.04873-79.753436 107.04873-19.618492 0-24.309871-1.279467-22.603915-5.970845zM190.853811 947.231987c-24.73636-14.927114-31.560183-31.560183-29.854227-70.370679 3.838401-77.194502 50.325698-130.079134 114.725531-130.079134 28.574761 0 49.046231 7.676801 63.973344 24.309871 24.309871 26.868805 26.442316 53.31112 8.956268 106.622241l-11.941691 34.972095 10.235735 2.558933c9.382757 2.132445 9.809246 4.26489 7.250313 18.339026-1.705956 8.529779-3.838401 17.059559-4.691379 18.765514-1.279467 2.132445-34.119117 3.411912-73.356102 3.411912-63.546855 0-72.929613-0.852978-85.297792-8.529779z m109.181174-71.223657c12.794669-50.325698 12.36818-66.532278-1.705955-77.620991-13.221158-10.662224-35.398584-11.515202-52.458143-2.558934-15.353603 7.676801-29.854227 40.94294-33.266139 76.341524-2.132445 24.73636-1.705956 27.295294 7.676801 34.119117 6.823823 4.691379 19.192003 6.823823 40.089963 6.823824h29.854227l9.809246-37.10454zM395.568513 951.496876c-5.544357-2.558934-12.36818-10.662224-15.780092-18.339025-6.397334-15.780092-5.117868-33.692628 8.52978-101.930862l7.676801-37.531029h44.354852l-3.8384 20.47147c-19.618492 98.51895-19.618492 98.945439 11.941691 98.94544 12.794669 0 23.030404-1.279467 23.030404-2.558934 0-1.705956 17.059559-79.326947 23.456892-107.04873 2.132445-8.529779 5.117868-9.809246 23.456893-9.809246 11.941691 0 21.324448 0.852978 21.324449 1.705956 0 2.985423-30.280716 145.006247-32.413162 153.109538-2.132445 6.397334-8.10329 7.250312-52.031653 6.823823-27.295294 0-54.164098-1.705956-59.708455-3.838401zM562.752187 951.496876c-23.030404-9.382757-29.001249-40.089963-16.206581-87.430237 8.956268-36.251562 18.339025-49.47272 42.222407-62.693878 16.63307-9.382757 26.868805-11.941691 48.193253-11.941691 47.766764 0 68.238234 20.044981 63.120367 61.414411-5.970845 44.354852-0.852978 40.94294-60.561433 40.94294-50.325698 0-52.884631 0.426489-52.884631 8.52978 0 12.36818 15.780092 17.059559 60.134943 17.059558 20.897959 0 37.957518 1.279467 37.957518 3.411912 0 1.705956-2.132445 10.235735-4.691379 19.192003l-4.264889 15.780092-52.031654-0.426489c-28.574761 0-56.296543-1.705956-60.987921-3.838401z m92.121616-104.063307c0-9.809246-12.36818-19.618492-25.162849-19.618492-11.941691 0-34.545606 14.074136-34.545606 21.750937 0 2.132445 13.647647 3.838401 29.854227 3.838401 23.030404 0 29.854227-1.279467 29.854228-5.970846zM715.008746 899.465223c6.397334-31.133694 14.500625-68.238234 17.486048-82.31237l5.970845-25.589338h58.002499c64.826322 0 69.091212 1.705956 74.20908 26.868805l2.985423 13.647647h-98.94544l-4.264889 16.20658c-2.132445 8.529779-8.529779 36.251562-13.647647 61.8409l-9.382757 45.634319h-44.781342l12.36818-56.296543z" fill="#141B28" p-id="5075"></path><path d="M840.396501 948.511454c6.823823-18.765514 6.823823-32.413161-1.705955-64.399834-5.117868-19.192003-8.956268-36.251562-8.956269-37.957518 0-2.132445 10.662224-2.558934 23.883382-2.132444 20.47147 1.705956 23.883382 2.985423 27.721783 12.36818 3.838401 10.235735 5.544357 8.529779 38.810496-38.810496l34.545606-49.47272h54.590587l-9.382757 14.074136c-5.544357 7.250312-28.148272 37.531029-50.325698 66.958767-21.750937 29.001249-45.634319 64.826322-52.458142 79.753436l-12.794669 26.868805h-23.456893c-20.47147 0-23.030404-0.852978-20.471471-7.250312zM102.570596 814.16743c4.26489-20.044981 4.691379-20.47147 28.148271-20.47147 22.177426 0 24.309871 2.558934 18.339026 24.73636-2.558934 8.10329-5.544357 9.382757-26.015827 9.382757h-23.456893l2.985423-13.647647z" fill="#141B28" p-id="5076"></path></svg>