<svg t="1694946213351" class="icon" viewBox="0 0 1024 1024" version="1.1" xmlns="http://www.w3.org/2000/svg" p-id="1811" width="200" height="200"><path d="M142.222222 56.888889a28.444444 28.444444 0 0 1 28.444445 28.444444L170.609778 170.666667H824.888889A85.333333 85.333333 0 0 1 910.222222 256V796.444444h85.333334a28.444444 28.444444 0 1 1 0 56.888889H910.222222v85.333334a28.444444 28.444444 0 1 1-56.888889 0V853.333333H199.111111A85.333333 85.333333 0 0 1 113.777778 768l-0.056889-540.216889H28.444444a28.444444 28.444444 0 0 1 0-56.888889h85.276445L113.777778 85.333333a28.444444 28.444444 0 0 1 28.444444-28.444444z" fill="#A7CBFF" p-id="1812"></path><path d="M873.073778 623.616l37.091555 36.522667L910.222222 796.444444h85.333334a28.444444 28.444444 0 1 1 0 56.888889H910.222222v85.333334a28.444444 28.444444 0 1 1-56.888889 0V853.333333h-168.163555l-67.128889-83.000889 47.388444-40.448 24.860445-20.992 51.939555-43.463111 54.954667-45.397333a56.775111 56.775111 0 0 1 75.889778 3.584z" fill="#619FF8" p-id="1813"></path><path d="M426.666667 469.788444L747.975111 853.333333H199.111111A85.333333 85.333333 0 0 1 113.777778 768v-107.349333l46.364444-40.163556 49.493334-42.268444 52.565333-44.487111 84.650667-70.883556a56.718222 56.718222 0 0 1 79.815111 6.940444z" fill="#7AAEFF" p-id="1814"></path><path d="M753.777778 355.555556m-71.111111 0a71.111111 71.111111 0 1 0 142.222222 0 71.111111 71.111111 0 1 0-142.222222 0Z" fill="#FFFFFF" opacity=".955" p-id="1815"></path></svg>