<svg t="1594640680728" class="icon" viewBox="0 0 1024 1024" version="1.1" xmlns="http://www.w3.org/2000/svg" p-id="3117" width="200" height="200"><path d="M618.666667 896H405.333333c-12.8 0-21.333333 8.533333-21.333333 21.333333s8.533333 21.333333 21.333333 21.333334h213.333334c12.8 0 21.333333-8.533333 21.333333-21.333334s-8.533333-21.333333-21.333333-21.333333z m42.666666-85.333333H362.666667c-12.8 0-21.333333 8.533333-21.333334 21.333333s8.533333 21.333333 21.333334 21.333333h298.666666c12.8 0 21.333333-8.533333 21.333334-21.333333s-8.533333-21.333333-21.333334-21.333333zM512 0C311.466667 0 149.333333 157.866667 149.333333 349.866667c0 102.4 46.933333 198.4 125.866667 264.533333 17.066667 12.8 25.6 34.133333 25.6 55.466667v29.866666c0 38.4 32 70.4 68.266667 70.4h283.733333c38.4 0 68.266667-32 68.266667-70.4v-29.866666c0-21.333333 8.533333-40.533333 25.6-55.466667 78.933333-66.133333 125.866667-162.133333 125.866666-264.533333C874.666667 157.866667 712.533333 0 512 0z m232.533333 392.533333c-10.666667 0-19.2-8.533333-19.2-19.2-2.133333-55.466667-25.6-113.066667-64-155.733333-25.6-27.733333-70.4-61.866667-134.4-61.866667-10.666667 0-21.333333-8.533333-21.333333-21.333333s8.533333-21.333333 21.333333-21.333333c61.866667 0 119.466667 25.6 164.266667 74.666666 44.8 49.066667 72.533333 117.333333 74.666667 183.466667 2.133333 10.666667-8.533333 21.333333-21.333334 21.333333zM576 981.333333h-128c-12.8 0-21.333333 8.533333-21.333333 21.333334s8.533333 21.333333 21.333333 21.333333h128c12.8 0 21.333333-8.533333 21.333333-21.333333s-8.533333-21.333333-21.333333-21.333334z" fill="#67C23A" p-id="3118"></path></svg>