<?xml version="1.0" encoding="utf-8"?>
<svg version="1.1" xmlns:xlink="http://www.w3.org/1999/xlink" width="15px" height="15px" xmlns="http://www.w3.org/2000/svg">
  <g transform="matrix(1 0 0 1 -197 -358 )">
    <path d="M 204.5 358  C 208.7 358  212 361.3  212 365.5  C 212 369.7  208.7 373  204.5 373  C 200.3 373  197 369.7  197 365.5  C 197 361.3  200.3 358  204.5 358  Z " fill-rule="nonzero" fill="#ffffff" stroke="none" />
    <path d="M 204.5 358.5  C 208.42 358.5  211.5 361.58  211.5 365.5  C 211.5 369.42  208.42 372.5  204.5 372.5  C 200.58 372.5  197.5 369.42  197.5 365.5  C 197.5 361.58  200.58 358.5  204.5 358.5  Z " stroke-width="1" stroke="#a1a1a1" fill="none" />
  </g>
</svg>