<?xml version="1.0" encoding="utf-8"?>
<svg version="1.1" xmlns:xlink="http://www.w3.org/1999/xlink" width="87px" height="20px" xmlns="http://www.w3.org/2000/svg">
  <defs>
    <mask fill="white" id="clip1497">
      <path d="M 0 16  L 0 4  C 0 1.75999999999999  1.75999999999999 0  4 0  L 33.7058823529412 0  L 83 0  C 85.24 0  87 1.75999999999999  87 4  L 87 16  C 87 18.24  85.24 20  83 20  L 4 20  C 1.75999999999999 20  0 18.24  0 16  Z " fill-rule="evenodd" />
    </mask>
  </defs>
  <g transform="matrix(1 0 0 1 -714 -1618 )">
    <path d="M 0 16  L 0 4  C 0 1.75999999999999  1.75999999999999 0  4 0  L 33.7058823529412 0  L 83 0  C 85.24 0  87 1.75999999999999  87 4  L 87 16  C 87 18.24  85.24 20  83 20  L 4 20  C 1.75999999999999 20  0 18.24  0 16  Z " fill-rule="nonzero" fill="#e6fffb" stroke="none" transform="matrix(1 0 0 1 714 1618 )" />
    <path d="M 0 16  L 0 4  C 0 1.75999999999999  1.75999999999999 0  4 0  L 33.7058823529412 0  L 83 0  C 85.24 0  87 1.75999999999999  87 4  L 87 16  C 87 18.24  85.24 20  83 20  L 4 20  C 1.75999999999999 20  0 18.24  0 16  Z " stroke-width="2" stroke="#87e8de" fill="none" transform="matrix(1 0 0 1 714 1618 )" mask="url(#clip1497)" />
  </g>
</svg>