<?xml version="1.0" encoding="utf-8"?>
<svg version="1.1" xmlns:xlink="http://www.w3.org/1999/xlink" width="59px" height="20px" xmlns="http://www.w3.org/2000/svg">
  <defs>
    <mask fill="white" id="clip112">
      <path d="M 0 16  L 0 4  C 0 1.75999999999999  1.1935632183908 0  2.71264367816092 0  L 22.8580121703854 0  L 56.2873563218391 0  C 57.8064367816092 0  59 1.75999999999999  59 4  L 59 16  C 59 18.24  57.8064367816092 20  56.2873563218391 20  L 2.71264367816092 20  C 1.1935632183908 20  0 18.24  0 16  Z " fill-rule="evenodd" />
    </mask>
  </defs>
  <g transform="matrix(1 0 0 1 -714 -869 )">
    <path d="M 0 16  L 0 4  C 0 1.75999999999999  1.1935632183908 0  2.71264367816092 0  L 22.8580121703854 0  L 56.2873563218391 0  C 57.8064367816092 0  59 1.75999999999999  59 4  L 59 16  C 59 18.24  57.8064367816092 20  56.2873563218391 20  L 2.71264367816092 20  C 1.1935632183908 20  0 18.24  0 16  Z " fill-rule="nonzero" fill="#e6fffb" stroke="none" transform="matrix(1 0 0 1 714 869 )" />
    <path d="M 0 16  L 0 4  C 0 1.75999999999999  1.1935632183908 0  2.71264367816092 0  L 22.8580121703854 0  L 56.2873563218391 0  C 57.8064367816092 0  59 1.75999999999999  59 4  L 59 16  C 59 18.24  57.8064367816092 20  56.2873563218391 20  L 2.71264367816092 20  C 1.1935632183908 20  0 18.24  0 16  Z " stroke-width="2" stroke="#87e8de" fill="none" transform="matrix(1 0 0 1 714 869 )" mask="url(#clip112)" />
  </g>
</svg>