<?xml version="1.0" encoding="utf-8"?>
<svg version="1.1" xmlns:xlink="http://www.w3.org/1999/xlink" width="68px" height="20px" xmlns="http://www.w3.org/2000/svg">
  <defs>
    <mask fill="white" id="clip2026">
      <path d="M 0 15  L 0 5  C 0 2.20000000000005  2.19999999999999 0  5 0  L 32 0  L 63 0  C 65.8 0  68 2.20000000000005  68 5  L 68 15  C 68 17.8  65.8 20  63 20  L 5 20  C 2.19999999999999 20  0 17.8  0 15  Z " fill-rule="evenodd" />
    </mask>
  </defs>
  <g transform="matrix(1 0 0 1 -200 -552 )">
    <path d="M 0 15  L 0 5  C 0 2.20000000000005  2.19999999999999 0  5 0  L 32 0  L 63 0  C 65.8 0  68 2.20000000000005  68 5  L 68 15  C 68 17.8  65.8 20  63 20  L 5 20  C 2.19999999999999 20  0 17.8  0 15  Z " fill-rule="nonzero" fill="#ffffff" stroke="none" transform="matrix(1 0 0 1 200 552 )" />
    <path d="M 0 15  L 0 5  C 0 2.20000000000005  2.19999999999999 0  5 0  L 32 0  L 63 0  C 65.8 0  68 2.20000000000005  68 5  L 68 15  C 68 17.8  65.8 20  63 20  L 5 20  C 2.19999999999999 20  0 17.8  0 15  Z " stroke-width="2" stroke="#797979" fill="none" transform="matrix(1 0 0 1 200 552 )" mask="url(#clip2026)" />
  </g>
</svg>