<?xml version="1.0" encoding="utf-8"?>
<svg version="1.1" xmlns:xlink="http://www.w3.org/1999/xlink" width="88px" height="30px" xmlns="http://www.w3.org/2000/svg">
  <defs>
    <mask fill="white" id="clip1867">
      <path d="M 0 26  L 0 4  C 0 1.76  1.76 0  4 0  L 18.6120218579245 0  L 47.0273224043706 0  L 84 0  C 86.24 0  88 1.76  88 4  L 88 26  C 88 28.24  86.24 30  84 30  L 4 30  C 1.76 30  0 28.24  0 26  Z " fill-rule="evenodd" />
    </mask>
  </defs>
  <g transform="matrix(1 0 0 1 -330 -244 )">
    <path d="M 0 26  L 0 4  C 0 1.76  1.76 0  4 0  L 18.6120218579245 0  L 47.0273224043706 0  L 84 0  C 86.24 0  88 1.76  88 4  L 88 26  C 88 28.24  86.24 30  84 30  L 4 30  C 1.76 30  0 28.24  0 26  Z " fill-rule="nonzero" fill="#ffffff" stroke="none" transform="matrix(1 0 0 1 330 244 )" />
    <path d="M 0 26  L 0 4  C 0 1.76  1.76 0  4 0  L 18.6120218579245 0  L 47.0273224043706 0  L 84 0  C 86.24 0  88 1.76  88 4  L 88 26  C 88 28.24  86.24 30  84 30  L 4 30  C 1.76 30  0 28.24  0 26  Z " stroke-width="2" stroke="#666666" fill="none" transform="matrix(1 0 0 1 330 244 )" mask="url(#clip1867)" />
  </g>
</svg>