<?xml version="1.0" encoding="utf-8"?>
<svg version="1.1" xmlns:xlink="http://www.w3.org/1999/xlink" width="1702px" height="183px" xmlns="http://www.w3.org/2000/svg">
  <g transform="matrix(1 0 0 1 -210 -143 )">
    <path d="M 0.5 0  L 0.5 181.158705701079  C 0 181.629830508474  1.05612417685794 182  2.40028222013171 182.5  L 1698.59971777987 182.5  C 1699.94387582314 182  1701 181.629830508474  1701.5 181.158705701079  L 1701.5 0  L 0.5 0  Z " fill-rule="nonzero" fill="#ffffff" stroke="none" transform="matrix(1 0 0 1 210 143 )" />
    <path d="M 0.5 0  L 0.5 181.158705701079  C 0 181.629830508474  1.05612417685794 182  2.40028222013171 182.5  L 1698.59971777987 182.5  C 1699.94387582314 182  1701 181.629830508474  1701.5 181.158705701079  L 1701.5 0  " stroke-width="1" stroke="#e9e9e9" fill="none" transform="matrix(1 0 0 1 210 143 )" />
  </g>
</svg>