<?xml version="1.0" encoding="utf-8"?>
<svg version="1.1" xmlns:xlink="http://www.w3.org/1999/xlink" width="1702px" height="113px" xmlns="http://www.w3.org/2000/svg">
  <g transform="matrix(1 0 0 1 -1 -388 )">
    <path d="M 0.5 0  L 0.5 111.482280431433  C 0 111.77220338983  1.05612417685794 112  2.40028222013171 112.5  L 1698.59971777987 112.5  C 1699.94387582314 112  1701 111.77220338983  1701.5 111.482280431433  L 1701.5 0  L 0.5 0  Z " fill-rule="nonzero" fill="#ffffff" stroke="none" transform="matrix(1 0 0 1 1 388 )" />
    <path d="M 0.5 0  L 0.5 111.482280431433  C 0 111.77220338983  1.05612417685794 112  2.40028222013171 112.5  L 1698.59971777987 112.5  C 1699.94387582314 112  1701 111.77220338983  1701.5 111.482280431433  L 1701.5 0  " stroke-width="1" stroke="#e9e9e9" fill="none" transform="matrix(1 0 0 1 1 388 )" />
  </g>
</svg>