<?xml version="1.0" standalone="no"?><!DOCTYPE svg PUBLIC "-//W3C//DTD SVG 1.1//EN" "http://www.w3.org/Graphics/SVG/1.1/DTD/svg11.dtd"><svg t="1584501252888" class="icon" viewBox="0 0 1024 1024" version="1.1" xmlns="http://www.w3.org/2000/svg" p-id="2625" xmlns:xlink="http://www.w3.org/1999/xlink" width="200" height="200"><defs><style type="text/css"></style></defs><path d="M512 739.555556c-108.088889 0-199.111111-91.022222-199.111111-199.111112S403.911111 341.333333 512 341.333333s199.111111 91.022222 199.111111 199.111111S620.088889 739.555556 512 739.555556z m0-341.333334C432.355556 398.222222 369.777778 460.8 369.777778 540.444444S432.355556 682.666667 512 682.666667s142.222222-62.577778 142.222222-142.222223S591.644444 398.222222 512 398.222222z" fill="#333333" p-id="2626"></path><path d="M512 227.555556m-56.888889 0a56.888889 56.888889 0 1 0 113.777778 0 56.888889 56.888889 0 1 0-113.777778 0Z" fill="#333333" p-id="2627"></path><path d="M722.488889 824.888889c130.844444-73.955556 216.177778-210.488889 216.177778-369.777778C938.666667 221.866667 745.244444 28.444444 512 28.444444S85.333333 221.866667 85.333333 455.111111c0 159.288889 85.333333 295.822222 216.177778 369.777778-11.377778 28.444444-17.066667 56.888889-17.066667 85.333333H170.666667v56.888889h682.666666v-56.888889h-113.777777c0-28.444444-5.688889-56.888889-17.066667-85.333333zM142.222222 455.111111c0-204.8 164.977778-369.777778 369.777778-369.777778s369.777778 164.977778 369.777778 369.777778-164.977778 369.777778-369.777778 369.777778S142.222222 659.911111 142.222222 455.111111zM341.333333 910.222222c0-22.755556 5.688889-39.822222 11.377778-56.888889 51.2 17.066667 102.4 28.444444 159.288889 28.444445 56.888889 0 108.088889-11.377778 159.288889-28.444445 5.688889 17.066667 11.377778 39.822222 11.377778 56.888889H341.333333z" fill="#333333" p-id="2628"></path></svg>