<?xml version="1.0" encoding="utf-8"?>
<svg version="1.1" xmlns:xlink="http://www.w3.org/1999/xlink" width="89px" height="30px" xmlns="http://www.w3.org/2000/svg">
  <defs>
    <mask fill="white" id="clip266">
      <path d="M 0 26  L 0 4  C 0 1.76  1.78 0  4.04545454545455 0  L 18.82352210631 0  L 47.5617237953293 0  L 84.9545454545455 0  C 87.22 0  89 1.76  89 4  L 89 26  C 89 28.24  87.22 30  84.9545454545455 30  L 4.04545454545455 30  C 1.78 30  0 28.24  0 26  Z " fill-rule="evenodd" />
    </mask>
  </defs>
  <g transform="matrix(1 0 0 1 -710 -192 )">
    <path d="M 0 26  L 0 4  C 0 1.76  1.78 0  4.04545454545455 0  L 18.82352210631 0  L 47.5617237953293 0  L 84.9545454545455 0  C 87.22 0  89 1.76  89 4  L 89 26  C 89 28.24  87.22 30  84.9545454545455 30  L 4.04545454545455 30  C 1.78 30  0 28.24  0 26  Z " fill-rule="nonzero" fill="#ffffff" stroke="none" transform="matrix(1 0 0 1 710 192 )" />
    <path d="M 0 26  L 0 4  C 0 1.76  1.78 0  4.04545454545455 0  L 18.82352210631 0  L 47.5617237953293 0  L 84.9545454545455 0  C 87.22 0  89 1.76  89 4  L 89 26  C 89 28.24  87.22 30  84.9545454545455 30  L 4.04545454545455 30  C 1.78 30  0 28.24  0 26  Z " stroke-width="2" stroke="#dcdfe6" fill="none" transform="matrix(1 0 0 1 710 192 )" mask="url(#clip266)" />
  </g>
</svg>