<?xml version="1.0" encoding="utf-8"?>
<svg version="1.1" xmlns:xlink="http://www.w3.org/1999/xlink" width="127px" height="30px" xmlns="http://www.w3.org/2000/svg">
  <defs>
    <mask fill="white" id="clip1654">
      <path d="M 0 26  L 0 4  C 0 1.76  2.54 0  5.77272727272727 0  L 26.8605315449592 0  L 67.8689766517621 0  L 121.227272727273 0  C 124.46 0  127 1.76  127 4  L 127 26  C 127 28.24  124.46 30  121.227272727273 30  L 5.77272727272727 30  C 2.54 30  0 28.24  0 26  Z " fill-rule="evenodd" />
    </mask>
  </defs>
  <g transform="matrix(1 0 0 1 -573 -192 )">
    <path d="M 0 26  L 0 4  C 0 1.76  2.54 0  5.77272727272727 0  L 26.8605315449592 0  L 67.8689766517621 0  L 121.227272727273 0  C 124.46 0  127 1.76  127 4  L 127 26  C 127 28.24  124.46 30  121.227272727273 30  L 5.77272727272727 30  C 2.54 30  0 28.24  0 26  Z " fill-rule="nonzero" fill="#ffffff" stroke="none" transform="matrix(1 0 0 1 573 192 )" />
    <path d="M 0 26  L 0 4  C 0 1.76  2.54 0  5.77272727272727 0  L 26.8605315449592 0  L 67.8689766517621 0  L 121.227272727273 0  C 124.46 0  127 1.76  127 4  L 127 26  C 127 28.24  124.46 30  121.227272727273 30  L 5.77272727272727 30  C 2.54 30  0 28.24  0 26  Z " stroke-width="2" stroke="#dcdfe6" fill="none" transform="matrix(1 0 0 1 573 192 )" mask="url(#clip1654)" />
  </g>
</svg>