<?xml version="1.0" encoding="utf-8"?>
<svg version="1.1" xmlns:xlink="http://www.w3.org/1999/xlink" width="49px" height="49px" xmlns="http://www.w3.org/2000/svg">
  <g transform="matrix(1 0 0 1 -591 -245 )">
    <path d="M 615.5 245  C 629.22 245  640 255.78  640 269.5  C 640 283.22  629.22 294  615.5 294  C 601.78 294  591 283.22  591 269.5  C 591 255.78  601.78 245  615.5 245  Z " fill-rule="nonzero" fill="#ffffff" stroke="none" />
    <path d="M 615.5 245.5  C 628.94 245.5  639.5 256.06  639.5 269.5  C 639.5 282.94  628.94 293.5  615.5 293.5  C 602.06 293.5  591.5 282.94  591.5 269.5  C 591.5 256.06  602.06 245.5  615.5 245.5  Z " stroke-width="1" stroke="#797979" fill="none" />
  </g>
</svg>