<?xml version="1.0" encoding="utf-8"?>
<svg version="1.1" xmlns:xlink="http://www.w3.org/1999/xlink" width="52px" height="20px" xmlns="http://www.w3.org/2000/svg">
  <defs>
    <mask fill="white" id="clip187">
      <path d="M 0 16  L 0 4  C 0 1.75999999999999  1.75999999999999 0  4 0  L 31.6111111111117 0  L 48 0  C 50.24 0  52 1.75999999999999  52 4  L 52 16  C 52 18.24  50.24 20  48 20  L 4 20  C 1.75999999999999 20  0 18.24  0 16  Z " fill-rule="evenodd" />
    </mask>
  </defs>
  <g transform="matrix(1 0 0 1 -1175 -609 )">
    <path d="M 0 16  L 0 4  C 0 1.75999999999999  1.75999999999999 0  4 0  L 31.6111111111117 0  L 48 0  C 50.24 0  52 1.75999999999999  52 4  L 52 16  C 52 18.24  50.24 20  48 20  L 4 20  C 1.75999999999999 20  0 18.24  0 16  Z " fill-rule="nonzero" fill="#e6f7ff" stroke="none" transform="matrix(1 0 0 1 1175 609 )" />
    <path d="M 0 16  L 0 4  C 0 1.75999999999999  1.75999999999999 0  4 0  L 31.6111111111117 0  L 48 0  C 50.24 0  52 1.75999999999999  52 4  L 52 16  C 52 18.24  50.24 20  48 20  L 4 20  C 1.75999999999999 20  0 18.24  0 16  Z " stroke-width="2" stroke="#91d5ff" fill="none" transform="matrix(1 0 0 1 1175 609 )" mask="url(#clip187)" />
  </g>
</svg>