<?xml version="1.0" encoding="utf-8"?>
<svg version="1.1" xmlns:xlink="http://www.w3.org/1999/xlink" width="18px" height="15px" xmlns="http://www.w3.org/2000/svg">
  <g transform="matrix(1 0 0 1 -750 -285 )">
    <path d="M 12.2783203125 3.49609375  C 12.7177734375 3.74348958333333  12.9375 4.03645833333333  12.9375 4.375  C 12.9375 4.45963541666667  12.8818359375 4.53287760416667  12.7705078125 4.5947265625  C 12.6591796875 4.65657552083333  12.52734375 4.6875  12.375 4.6875  C 12.22265625 4.6875  12.0908203125 4.65657552083333  11.9794921875 4.5947265625  C 11.8681640625 4.53287760416667  11.8125 4.45963541666667  11.8125 4.375  C 11.8125 4.07552083333333  11.49609375 3.84440104166667  10.86328125 3.681640625  C 10.23046875 3.51888020833333  9.609375 3.4375  9 3.4375  C 8.84765625 3.4375  8.7158203125 3.40657552083333  8.6044921875 3.3447265625  C 8.4931640625 3.28287760416666  8.4375 3.20963541666666  8.4375 3.125  C 8.4375 3.04036458333333  8.4931640625 2.96712239583333  8.6044921875 2.9052734375  C 8.7158203125 2.84342447916666  8.84765625 2.8125  9 2.8125  C 9.5859375 2.8125  10.1689453125 2.86458333333333  10.7490234375 2.96875  C 11.3291015625 3.07291666666667  11.8388671875 3.24869791666667  12.2783203125 3.49609375  Z M 14.5546875 6.1328125  C 15.3515625 5.61848958333333  15.75 5.03255208333333  15.75 4.375  C 15.75 3.90625  15.5478515625 3.47005208333333  15.1435546875 3.06640625  C 14.7392578125 2.66276041666667  14.2119140625 2.33235677083333  13.5615234375 2.0751953125  C 12.9111328125 1.81803385416666  12.1904296875 1.6162109375  11.3994140625 1.4697265625  C 10.6083984375 1.3232421875  9.80859375 1.25  9 1.25  C 8.19140625 1.25  7.3916015625 1.3232421875  6.6005859375 1.4697265625  C 5.8095703125 1.6162109375  5.0888671875 1.81803385416666  4.4384765625 2.0751953125  C 3.7880859375 2.33235677083333  3.2607421875 2.66276041666667  2.8564453125 3.06640625  C 2.4521484375 3.47005208333333  2.25 3.90625  2.25 4.375  C 2.25 5.03255208333333  2.6484375 5.61848958333333  3.4453125 6.1328125  C 3.5625 6.20442708333333  3.7412109375 6.31184895833333  3.9814453125 6.455078125  C 4.2216796875 6.59830729166667  4.400390625 6.70572916666667  4.517578125 6.77734375  C 6.017578125 7.7734375  6.84375 8.74348958333333  6.99609375 9.6875  L 11.00390625 9.6875  C 11.15625 8.74348958333333  11.982421875 7.7734375  13.482421875 6.77734375  C 13.599609375 6.70572916666667  13.7783203125 6.59830729166667  14.0185546875 6.455078125  C 14.2587890625 6.31184895833333  14.4375 6.20442708333333  14.5546875 6.1328125  Z M 17.2177734375 2.5732421875  C 17.7392578125 3.1298828125  18 3.73046875  18 4.375  C 18 5.38411458333333  17.396484375 6.25651041666667  16.189453125 6.9921875  C 15.662109375 7.31119791666667  15.2255859375 7.59440104166667  14.8798828125 7.841796875  C 14.5341796875 8.08919270833333  14.185546875 8.40006510416666  13.833984375 8.7744140625  C 13.482421875 9.14876302083333  13.283203125 9.49869791666666  13.236328125 9.82421875  C 13.787109375 10.0065104166667  14.0625 10.2734375  14.0625 10.625  C 14.0625 10.8658854166667  13.916015625 11.07421875  13.623046875 11.25  C 13.916015625 11.42578125  14.0625 11.6341145833333  14.0625 11.875  C 14.0625 12.2135416666667  13.798828125 12.4772135416667  13.271484375 12.666015625  C 13.423828125 12.8157552083333  13.5 12.96875  13.5 13.125  C 13.5 13.4244791666667  13.3154296875 13.6555989583333  12.9462890625 13.818359375  C 12.5771484375 13.9811197916667  12.123046875 14.0625  11.583984375 14.0625  C 11.349609375 14.3489583333333  10.998046875 14.5768229166667  10.529296875 14.74609375  C 10.060546875 14.9153645833333  9.55078125 15  9 15  C 8.44921875 15  7.939453125 14.9153645833333  7.470703125 14.74609375  C 7.001953125 14.5768229166667  6.650390625 14.3489583333333  6.416015625 14.0625  C 5.876953125 14.0625  5.4228515625 13.9811197916667  5.0537109375 13.818359375  C 4.6845703125 13.6555989583333  4.5 13.4244791666667  4.5 13.125  C 4.5 12.96875  4.576171875 12.8157552083333  4.728515625 12.666015625  C 4.201171875 12.4772135416667  3.9375 12.2135416666667  3.9375 11.875  C 3.9375 11.6341145833333  4.083984375 11.42578125  4.376953125 11.25  C 4.083984375 11.07421875  3.9375 10.8658854166667  3.9375 10.625  C 3.9375 10.2734375  4.212890625 10.0065104166667  4.763671875 9.82421875  C 4.716796875 9.49869791666666  4.517578125 9.14876302083333  4.166015625 8.7744140625  C 3.814453125 8.40006510416666  3.4658203125 8.08919270833333  3.1201171875 7.841796875  C 2.7744140625 7.59440104166667  2.337890625 7.31119791666667  1.810546875 6.9921875  C 0.603515625 6.25651041666667  0 5.38411458333333  0 4.375  C 0 3.73046875  0.2607421875 3.1298828125  0.7822265625 2.5732421875  C 1.3037109375 2.0166015625  1.9892578125 1.55436197916666  2.8388671875 1.1865234375  C 3.6884765625 0.818684895833332  4.6494140625 0.528971354166665  5.7216796875 0.317382812499999  C 6.7939453125 0.105794270833333  7.88671875 0  9 0  C 10.11328125 0  11.2060546875 0.105794270833333  12.2783203125 0.317382812499999  C 13.3505859375 0.528971354166665  14.3115234375 0.818684895833332  15.1611328125 1.1865234375  C 16.0107421875 1.55436197916666  16.6962890625 2.0166015625  17.2177734375 2.5732421875  Z " fill-rule="nonzero" fill="#feac32" stroke="none" transform="matrix(1 0 0 1 750 285 )" />
  </g>
</svg>