<?xml version="1.0" encoding="utf-8"?>
<svg version="1.1" xmlns:xlink="http://www.w3.org/1999/xlink" width="88px" height="30px" xmlns="http://www.w3.org/2000/svg">
  <defs>
    <mask fill="white" id="clip1417">
      <path d="M 0 26  L 0 4  C 0 1.75999999999999  1.75999999999999 0  4 0  L 49 0  L 84 0  C 86.24 0  88 1.75999999999999  88 4  L 88 26  C 88 28.24  86.24 30  84 30  L 4 30  C 1.75999999999999 30  0 28.24  0 26  Z " fill-rule="evenodd" />
    </mask>
  </defs>
  <g transform="matrix(1 0 0 1 -1800 -420 )">
    <path d="M 0 26  L 0 4  C 0 1.75999999999999  1.75999999999999 0  4 0  L 49 0  L 84 0  C 86.24 0  88 1.75999999999999  88 4  L 88 26  C 88 28.24  86.24 30  84 30  L 4 30  C 1.75999999999999 30  0 28.24  0 26  Z " fill-rule="nonzero" fill="#ffffff" stroke="none" transform="matrix(1 0 0 1 1800 420 )" />
    <path d="M 0 26  L 0 4  C 0 1.75999999999999  1.75999999999999 0  4 0  L 49 0  L 84 0  C 86.24 0  88 1.75999999999999  88 4  L 88 26  C 88 28.24  86.24 30  84 30  L 4 30  C 1.75999999999999 30  0 28.24  0 26  Z " stroke-width="2" stroke="#dcdfe6" fill="none" transform="matrix(1 0 0 1 1800 420 )" mask="url(#clip1417)" />
  </g>
</svg>