<?xml version="1.0" encoding="utf-8"?>
<svg version="1.1" xmlns:xlink="http://www.w3.org/1999/xlink" width="111px" height="30px" xmlns="http://www.w3.org/2000/svg">
  <defs>
    <mask fill="white" id="clip29">
      <path d="M 0 26  L 0 4  C 0 1.75999999999999  2.21999999999999 0  5.04545454545455 0  L 50.4753086419762 0  L 105.954545454545 0  C 108.78 0  111 1.75999999999999  111 4  L 111 26  C 111 28.24  108.78 30  105.954545454545 30  L 5.04545454545455 30  C 2.21999999999999 30  0 28.24  0 26  Z " fill-rule="evenodd" />
    </mask>
  </defs>
  <g transform="matrix(1 0 0 1 -244 0 )">
    <path d="M 0 26  L 0 4  C 0 1.75999999999999  2.21999999999999 0  5.04545454545455 0  L 50.4753086419762 0  L 105.954545454545 0  C 108.78 0  111 1.75999999999999  111 4  L 111 26  C 111 28.24  108.78 30  105.954545454545 30  L 5.04545454545455 30  C 2.21999999999999 30  0 28.24  0 26  Z " fill-rule="nonzero" fill="#ffffff" stroke="none" transform="matrix(1 0 0 1 244 0 )" />
    <path d="M 0 26  L 0 4  C 0 1.75999999999999  2.21999999999999 0  5.04545454545455 0  L 50.4753086419762 0  L 105.954545454545 0  C 108.78 0  111 1.75999999999999  111 4  L 111 26  C 111 28.24  108.78 30  105.954545454545 30  L 5.04545454545455 30  C 2.21999999999999 30  0 28.24  0 26  Z " stroke-width="2" stroke="#dcdfe6" fill="none" transform="matrix(1 0 0 1 244 0 )" mask="url(#clip29)" />
  </g>
</svg>