<?xml version="1.0" encoding="utf-8"?>
<svg version="1.1" xmlns:xlink="http://www.w3.org/1999/xlink" width="15px" height="14px" xmlns="http://www.w3.org/2000/svg">
  <g transform="matrix(1 0 0 1 -756 -372 )">
    <path d="M 7.144775390625 5.974609375  C 6.595458984375 6.658203125  5.9326171875 7  5.15625 7  C 4.3798828125 7  3.717041015625 6.658203125  3.167724609375 5.974609375  C 2.618408203125 5.291015625  2.34375 4.46614583333333  2.34375 3.5  C 2.34375 2.53385416666667  2.618408203125 1.708984375  3.167724609375 1.025390625  C 3.717041015625 0.341796875  4.3798828125 0  5.15625 0  C 5.9326171875 0  6.595458984375 0.341796875  7.144775390625 1.025390625  C 7.694091796875 1.708984375  7.96875 2.53385416666667  7.96875 3.5  C 7.96875 4.46614583333333  7.694091796875 5.291015625  7.144775390625 5.974609375  Z M 12.1875 4.95833333333333  L 12.1875 8.16666666666667  L 14.765625 8.16666666666667  C 14.8291015625 8.16666666666667  14.884033203125 8.19552951388889  14.930419921875 8.25325520833333  C 14.976806640625 8.31098090277778  15 8.37934027777778  15 8.45833333333333  L 15 10.2083333333333  C 15 10.2873263888889  14.976806640625 10.3556857638889  14.930419921875 10.4134114583333  C 14.884033203125 10.4711371527778  14.8291015625 10.5  14.765625 10.5  L 12.1875 10.5  L 12.1875 13.7083333333333  C 12.1875 13.7873263888889  12.164306640625 13.8556857638889  12.117919921875 13.9134114583333  C 12.071533203125 13.9711371527778  12.0166015625 14  11.953125 14  L 10.546875 14  C 10.4833984375 14  10.428466796875 13.9711371527778  10.382080078125 13.9134114583333  C 10.335693359375 13.8556857638889  10.3125 13.7873263888889  10.3125 13.7083333333333  L 10.3125 10.5  L 7.734375 10.5  C 7.6708984375 10.5  7.615966796875 10.4711371527778  7.569580078125 10.4134114583333  C 7.523193359375 10.3556857638889  7.5 10.2873263888889  7.5 10.2083333333333  L 7.5 8.45833333333333  C 7.5 8.37934027777778  7.523193359375 8.31098090277778  7.569580078125 8.25325520833333  C 7.615966796875 8.19552951388889  7.6708984375 8.16666666666667  7.734375 8.16666666666667  L 10.3125 8.16666666666667  L 10.3125 4.95833333333333  C 10.3125 4.87934027777778  10.335693359375 4.81098090277778  10.382080078125 4.75325520833333  C 10.428466796875 4.69552951388889  10.4833984375 4.66666666666667  10.546875 4.66666666666667  L 11.953125 4.66666666666667  C 12.0166015625 4.66666666666667  12.071533203125 4.69552951388889  12.117919921875 4.75325520833333  C 12.164306640625 4.81098090277778  12.1875 4.87934027777778  12.1875 4.95833333333333  Z M 6.796875 8.45833333333333  L 6.796875 10.2083333333333  C 6.796875 10.5243055555556  6.8896484375 10.7977430555556  7.0751953125 11.0286458333333  C 7.2607421875 11.2595486111111  7.48046875 11.375  7.734375 11.375  L 9.609375 11.375  L 9.609375 13.5442708333333  C 9.27734375 13.8480902777778  8.85986328125 14  8.35693359375 14  L 1.95556640625 14  C 1.36474609375 14  0.89111328125 13.7903645833333  0.53466796875 13.37109375  C 0.17822265625 12.9518229166667  0 12.3745659722222  0 11.6393229166667  C 0 11.3172743055556  0.008544921875 11.0028211805556  0.025634765625 10.6959635416667  C 0.042724609375 10.3891059027778  0.076904296875 10.0579427083333  0.128173828125 9.70247395833333  C 0.179443359375 9.34700520833333  0.244140625 9.01736111111111  0.322265625 8.71354166666667  C 0.400390625 8.40972222222222  0.50537109375 8.11349826388889  0.63720703125 7.82486979166667  C 0.76904296875 7.53624131944444  0.92041015625 7.29014756944444  1.09130859375 7.08658854166667  C 1.26220703125 6.88302951388889  1.470947265625 6.72048611111111  1.717529296875 6.59895833333333  C 1.964111328125 6.47743055555555  2.236328125 6.41666666666667  2.5341796875 6.41666666666667  C 2.626953125 6.41666666666667  2.72216796875 6.46831597222222  2.81982421875 6.57161458333333  C 3.20556640625 6.94227430555555  3.582763671875 7.22026909722222  3.951416015625 7.40559895833333  C 4.320068359375 7.59092881944444  4.7216796875 7.68359375  5.15625 7.68359375  C 5.5908203125 7.68359375  5.992431640625 7.59092881944444  6.361083984375 7.40559895833333  C 6.729736328125 7.22026909722222  7.10693359375 6.94227430555555  7.49267578125 6.57161458333333  C 7.59033203125 6.46831597222222  7.685546875 6.41666666666667  7.7783203125 6.41666666666667  C 8.4228515625 6.41666666666667  8.95263671875 6.70833333333333  9.36767578125 7.29166666666667  L 7.734375 7.29166666666667  C 7.48046875 7.29166666666667  7.2607421875 7.40711805555556  7.0751953125 7.63802083333333  C 6.8896484375 7.86892361111111  6.796875 8.14236111111111  6.796875 8.45833333333333  Z " fill-rule="nonzero" fill="#d7d7d7" stroke="none" transform="matrix(1 0 0 1 756 372 )" />
  </g>
</svg>