<?xml version="1.0" encoding="utf-8"?>
<svg version="1.1" xmlns:xlink="http://www.w3.org/1999/xlink" width="14px" height="14px" viewBox="16 134  14 14" xmlns="http://www.w3.org/2000/svg">
  <path d="M 16.5 136  A 1.5 1.5 0 0 1 18 134.5 L 28 134.5  A 1.5 1.5 0 0 1 29.5 136 L 29.5 146  A 1.5 1.5 0 0 1 28 147.5 L 18 147.5  A 1.5 1.5 0 0 1 16.5 146 L 16.5 136  Z " fill-rule="nonzero" fill="#f0f0f0" stroke="none" />
  <path d="M 16.5 136  A 1.5 1.5 0 0 1 18 134.5 L 28 134.5  A 1.5 1.5 0 0 1 29.5 136 L 29.5 146  A 1.5 1.5 0 0 1 28 147.5 L 18 147.5  A 1.5 1.5 0 0 1 16.5 146 L 16.5 136  Z " stroke-width="1" stroke="#d9d9d9" fill="none" />
</svg>