<?xml version="1.0" encoding="utf-8"?>
<svg version="1.1" xmlns:xlink="http://www.w3.org/1999/xlink" width="18px" height="18px" xmlns="http://www.w3.org/2000/svg">
  <g transform="matrix(1 0 0 1 -1895 -16 )">
    <path d="M 17.056640625 5.98197115384615  C 17.685546875 7.14302884615385  18 8.37980769230769  18 9.69230769230769  C 18 10.8173076923077  17.76171875 11.8918269230769  17.28515625 12.9158653846154  C 16.80859375 13.9399038461538  16.16796875 14.8233173076923  15.36328125 15.5661057692308  C 14.55859375 16.3088942307692  13.6015625 16.9002403846154  12.4921875 17.3401442307692  C 11.3828125 17.7800480769231  10.21875 18  9 18  C 7.78125 18  6.6171875 17.7800480769231  5.5078125 17.3401442307692  C 4.3984375 16.9002403846154  3.44140625 16.3088942307692  2.63671875 15.5661057692308  C 1.83203125 14.8233173076923  1.19140625 13.9399038461538  0.71484375 12.9158653846154  C 0.23828125 11.8918269230769  0 10.8173076923077  0 9.69230769230769  C 0 8.37980769230769  0.314453125 7.14302884615385  0.943359375 5.98197115384615  C 1.572265625 4.82091346153846  2.45703125 3.84735576923077  3.59765625 3.06129807692308  C 3.93359375 2.83052884615384  4.306640625 2.74038461538461  4.716796875 2.79086538461538  C 5.126953125 2.84134615384615  5.453125 3.02163461538461  5.6953125 3.33173076923077  C 5.9453125 3.63461538461538  6.041015625 3.97536057692308  5.982421875 4.35396634615385  C 5.923828125 4.73257211538462  5.73046875 5.03725961538461  5.40234375 5.26802884615385  C 4.63671875 5.80168269230769  4.044921875 6.45432692307692  3.626953125 7.22596153846154  C 3.208984375 7.99759615384615  3 8.81971153846154  3 9.69230769230769  C 3 10.4423076923077  3.158203125 11.1580528846154  3.474609375 11.8395432692308  C 3.791015625 12.5210336538462  4.21875 13.1105769230769  4.7578125 13.6081730769231  C 5.296875 14.1057692307692  5.935546875 14.5006009615385  6.673828125 14.7926682692308  C 7.412109375 15.0847355769231  8.1875 15.2307692307692  9 15.2307692307692  C 9.8125 15.2307692307692  10.587890625 15.0847355769231  11.326171875 14.7926682692308  C 12.064453125 14.5006009615385  12.703125 14.1057692307692  13.2421875 13.6081730769231  C 13.78125 13.1105769230769  14.208984375 12.5210336538462  14.525390625 11.8395432692308  C 14.841796875 11.1580528846154  15 10.4423076923077  15 9.69230769230769  C 15 8.81971153846154  14.791015625 7.99759615384615  14.373046875 7.22596153846154  C 13.955078125 6.45432692307692  13.36328125 5.80168269230769  12.59765625 5.26802884615385  C 12.26953125 5.03725961538461  12.076171875 4.73257211538462  12.017578125 4.35396634615385  C 11.958984375 3.97536057692308  12.0546875 3.63461538461538  12.3046875 3.33173076923077  C 12.546875 3.02163461538461  12.875 2.84134615384615  13.2890625 2.79086538461538  C 13.703125 2.74038461538461  14.07421875 2.83052884615384  14.40234375 3.06129807692308  C 15.54296875 3.84735576923077  16.427734375 4.82091346153846  17.056640625 5.98197115384615  Z M 10.0546875 0.411057692307692  C 10.3515625 0.685096153846152  10.5 1.00961538461538  10.5 1.38461538461538  L 10.5 8.30769230769231  C 10.5 8.68269230769231  10.3515625 9.00721153846154  10.0546875 9.28125  C 9.7578125 9.55528846153846  9.40625 9.69230769230769  9 9.69230769230769  C 8.59375 9.69230769230769  8.2421875 9.55528846153846  7.9453125 9.28125  C 7.6484375 9.00721153846154  7.5 8.68269230769231  7.5 8.30769230769231  L 7.5 1.38461538461538  C 7.5 1.00961538461538  7.6484375 0.685096153846152  7.9453125 0.411057692307692  C 8.2421875 0.137019230769231  8.59375 0  9 0  C 9.40625 0  9.7578125 0.137019230769231  10.0546875 0.411057692307692  Z " fill-rule="nonzero" fill="#000000" stroke="none" transform="matrix(1 0 0 1 1895 16 )" />
  </g>
</svg>