<?xml version="1.0" encoding="utf-8"?>
<svg version="1.1" xmlns:xlink="http://www.w3.org/1999/xlink" width="18px" height="18px" xmlns="http://www.w3.org/2000/svg">
  <g transform="matrix(1 0 0 1 -1857 -16 )">
    <path d="M 5 5.72727272727273  L 5 8.18181818181818  L 13 8.18181818181818  L 13 5.72727272727273  C 13 4.82386363636364  12.609375 4.05255681818182  11.828125 3.41335227272727  C 11.046875 2.77414772727273  10.1041666666667 2.45454545454545  9 2.45454545454545  C 7.89583333333333 2.45454545454545  6.953125 2.77414772727273  6.171875 3.41335227272727  C 5.390625 4.05255681818182  5 4.82386363636364  5 5.72727272727273  Z M 17.5625 8.53977272727273  C 17.8541666666667 8.77840909090909  18 9.06818181818182  18 9.40909090909091  L 18 16.7727272727273  C 18 17.1136363636364  17.8541666666667 17.4034090909091  17.5625 17.6420454545455  C 17.2708333333333 17.8806818181818  16.9166666666667 18  16.5 18  L 1.5 18  C 1.08333333333333 18  0.729166666666667 17.8806818181818  0.4375 17.6420454545455  C 0.145833333333333 17.4034090909091  0 17.1136363636364  0 16.7727272727273  L 0 9.40909090909091  C 0 9.06818181818182  0.145833333333333 8.77840909090909  0.4375 8.53977272727273  C 0.729166666666667 8.30113636363636  1.08333333333333 8.18181818181818  1.5 8.18181818181818  L 2 8.18181818181818  L 2 5.72727272727273  C 2 4.15909090909091  2.6875 2.8125  4.0625 1.6875  C 5.4375 0.5625  7.08333333333333 0  9 0  C 10.9166666666667 0  12.5625 0.5625  13.9375 1.6875  C 15.3125 2.8125  16 4.15909090909091  16 5.72727272727273  L 16 8.18181818181818  L 16.5 8.18181818181818  C 16.9166666666667 8.18181818181818  17.2708333333333 8.30113636363636  17.5625 8.53977272727273  Z " fill-rule="nonzero" fill="#000000" stroke="none" transform="matrix(1 0 0 1 1857 16 )" />
  </g>
</svg>