<?xml version="1.0" encoding="utf-8"?>
<svg version="1.1" xmlns:xlink="http://www.w3.org/1999/xlink" width="110px" height="43px" xmlns="http://www.w3.org/2000/svg">
  <g transform="matrix(1 0 0 1 -259 -120 )">
    <path d="M 108.5 42  L 1.5 42  L 1.5 4  C 0.573684210526316 2.03999999999999  2.34063157894733 0.5  4.58947368421053 0.5  L 64.0761133603238 0.5  L 104.410526315789 0.5  C 106.659368421053 0.5  108.426315789474 2.03999999999999  108.5 4  L 108.5 42  Z " fill-rule="nonzero" fill="#f2f2f2" stroke="none" transform="matrix(1 0 0 1 259 120 )" />
    <path d="M 1.5 42  L 1.5 4  C 0.573684210526316 2.03999999999999  2.34063157894733 0.5  4.58947368421053 0.5  L 64.0761133603238 0.5  L 104.410526315789 0.5  C 106.659368421053 0.5  108.426315789474 2.03999999999999  108.5 4  L 108.5 42  " stroke-width="1" stroke="#cccccc" fill="none" transform="matrix(1 0 0 1 259 120 )" />
  </g>
</svg>