<?xml version="1.0" encoding="utf-8"?>
<svg version="1.1" xmlns:xlink="http://www.w3.org/1999/xlink" width="223px" height="32px" xmlns="http://www.w3.org/2000/svg">
  <defs>
    <mask fill="white" id="clip1651">
      <path d="M 0 28  L 0 4  C 0 1.75999999999999  1.75999999999999 0  4 0  L 85.7962962962972 0  L 219 0  C 221.24 0  223 1.75999999999999  223 4  L 223 28  C 223 30.24  221.24 32  219 32  L 4 32  C 1.75999999999999 32  0 30.24  0 28  Z " fill-rule="evenodd" />
    </mask>
  </defs>
  <g transform="matrix(1 0 0 1 -723 -548 )">
    <path d="M 0 28  L 0 4  C 0 1.75999999999999  1.75999999999999 0  4 0  L 85.7962962962972 0  L 219 0  C 221.24 0  223 1.75999999999999  223 4  L 223 28  C 223 30.24  221.24 32  219 32  L 4 32  C 1.75999999999999 32  0 30.24  0 28  Z " fill-rule="nonzero" fill="#ffffff" stroke="none" transform="matrix(1 0 0 1 723 548 )" />
    <path d="M 0 28  L 0 4  C 0 1.75999999999999  1.75999999999999 0  4 0  L 85.7962962962972 0  L 219 0  C 221.24 0  223 1.75999999999999  223 4  L 223 28  C 223 30.24  221.24 32  219 32  L 4 32  C 1.75999999999999 32  0 30.24  0 28  Z " stroke-width="2" stroke="#d9d9d9" fill="none" transform="matrix(1 0 0 1 723 548 )" mask="url(#clip1651)" />
  </g>
</svg>