<?xml version="1.0" encoding="utf-8"?>
<svg version="1.1" xmlns:xlink="http://www.w3.org/1999/xlink" width="18px" height="18px" xmlns="http://www.w3.org/2000/svg">
  <g transform="matrix(1 0 0 1 -80 -7 )">
    <path d="M 89 7  C 94.04 7  98 10.96  98 16  C 98 21.04  94.04 25  89 25  C 83.96 25  80 21.04  80 16  C 80 10.96  83.96 7  89 7  Z " fill-rule="nonzero" fill="#d9001b" stroke="none" />
    <path d="M 89 7.5  C 93.76 7.5  97.5 11.24  97.5 16  C 97.5 20.76  93.76 24.5  89 24.5  C 84.24 24.5  80.5 20.76  80.5 16  C 80.5 11.24  84.24 7.5  89 7.5  Z " stroke-width="1" stroke="#ffffff" fill="none" />
  </g>
</svg>