<?xml version="1.0" encoding="utf-8"?>
<svg version="1.1" xmlns:xlink="http://www.w3.org/1999/xlink" width="175px" height="175px" xmlns="http://www.w3.org/2000/svg">
  <g transform="matrix(1 0 0 1 -19 -34 )">
    <path d="M 32 127  L 48 127  L 48 143  L 32 143  L 32 127  Z M 32 32  L 48 32  L 48 48  L 32 48  L 32 32  Z M 127 32  L 143 32  L 143 48  L 127 48  L 127 32  Z M 16 111  L 16 159  L 64 159  L 64 111  L 16 111  Z M 16 16  L 16 64  L 64 64  L 64 16  L 16 16  Z M 111 16  L 111 64  L 159 64  L 159 16  L 111 16  Z M 0 95  L 80 95  L 80 175  L 0 175  L 0 95  Z M 127 159  L 143 159  L 143 175  L 127 175  L 127 159  Z M 159 159  L 175 159  L 175 175  L 159 175  L 159 159  Z M 159 95  L 175 95  L 175 143  L 127 143  L 127 127  L 111 127  L 111 175  L 95 175  L 95 95  L 143 95  L 143 111  L 159 111  L 159 95  Z M 0 0  L 80 0  L 80 80  L 0 80  L 0 0  Z M 95 0  L 175 0  L 175 80  L 95 80  L 95 0  Z " fill-rule="nonzero" fill="#000000" stroke="none" transform="matrix(1 0 0 1 19 34 )" />
  </g>
</svg>